<?xml version="1.0" encoding="utf-8"?>
<svg viewBox="0 0 128 128" xmlns="http://www.w3.org/2000/svg">
  <g id="g10" transform="matrix(1.282443, 0, 0, -1.282443, 19.144051, 126.999506)">
    <g id="g12" transform="scale(0.1)">
      <path d="m 225.973,955.027 c 7.586,0 13.738,6.153 13.738,13.739 0,7.586 -6.152,13.73 -13.738,13.73 -7.594,0 -13.743,-6.144 -13.743,-13.73 0,-7.586 6.149,-13.739 13.743,-13.739" style="fill:#6c97d4;fill-opacity:1;fill-rule:nonzero;stroke:none" id="path16"/>
      <path d="m 261.344,919.66 c 7.586,0 13.738,6.149 13.738,13.735 0,7.585 -6.152,13.73 -13.738,13.73 -7.594,0 -13.742,-6.145 -13.742,-13.73 0,-7.586 6.148,-13.735 13.742,-13.735" style="fill:#6c97d4;fill-opacity:1;fill-rule:nonzero;stroke:none" id="path18"/>
      <path d="m 296.715,919.66 c 7.586,0 13.738,6.149 13.738,13.735 0,7.585 -6.152,13.73 -13.738,13.73 -7.594,0 -13.742,-6.145 -13.742,-13.73 0,-7.586 6.148,-13.735 13.742,-13.735" style="fill:#6c97d4;fill-opacity:1;fill-rule:nonzero;stroke:none" id="path20"/>
      <path d="m 261.344,884.285 c 7.586,0 13.738,6.153 13.738,13.738 0,7.586 -6.152,13.731 -13.738,13.731 -7.594,0 -13.742,-6.145 -13.742,-13.731 0,-7.585 6.148,-13.738 13.742,-13.738" style="fill:#6c97d4;fill-opacity:1;fill-rule:nonzero;stroke:none" id="path22"/>
      <path d="m 296.715,884.285 c 7.586,0 13.738,6.153 13.738,13.738 0,7.586 -6.152,13.731 -13.738,13.731 -7.594,0 -13.742,-6.145 -13.742,-13.731 0,-7.585 6.148,-13.738 13.742,-13.738" style="fill:#6c97d4;fill-opacity:1;fill-rule:nonzero;stroke:none" id="path24"/>
      <path d="m 579.684,884.285 c 7.589,0 13.738,6.153 13.738,13.738 0,7.586 -6.149,13.731 -13.738,13.731 -7.59,0 -13.743,-6.145 -13.743,-13.731 0,-7.585 6.153,-13.738 13.743,-13.738" style="fill:#6c97d4;fill-opacity:1;fill-rule:nonzero;stroke:none" id="path26"/>
      <path d="m 261.344,848.914 c 7.586,0 13.738,6.152 13.738,13.738 0,7.578 -6.152,13.731 -13.738,13.731 -7.594,0 -13.742,-6.153 -13.742,-13.731 0,-7.586 6.148,-13.738 13.742,-13.738" style="fill:#6c97d4;fill-opacity:1;fill-rule:nonzero;stroke:none" id="path28"/>
      <path d="m 296.715,848.914 c 7.586,0 13.738,6.152 13.738,13.738 0,7.578 -6.152,13.731 -13.738,13.731 -7.594,0 -13.742,-6.153 -13.742,-13.731 0,-7.586 6.148,-13.738 13.742,-13.738" style="fill:#6c97d4;fill-opacity:1;fill-rule:nonzero;stroke:none" id="path30"/>
      <path d="m 332.086,848.914 c 7.586,0 13.738,6.152 13.738,13.738 0,7.578 -6.152,13.731 -13.738,13.731 -7.594,0 -13.742,-6.153 -13.742,-13.731 0,-7.586 6.148,-13.738 13.742,-13.738" style="fill:#6c97d4;fill-opacity:1;fill-rule:nonzero;stroke:none" id="path32"/>
      <path d="m 367.453,848.914 c 7.59,0 13.742,6.152 13.742,13.738 0,7.578 -6.152,13.731 -13.742,13.731 -7.586,0 -13.738,-6.153 -13.738,-13.731 0,-7.586 6.152,-13.738 13.738,-13.738" style="fill:#6c97d4;fill-opacity:1;fill-rule:nonzero;stroke:none" id="path34"/>
      <path d="m 402.824,848.914 c 7.59,0 13.742,6.152 13.742,13.738 0,7.578 -6.152,13.731 -13.742,13.731 -7.586,0 -13.738,-6.153 -13.738,-13.731 0,-7.586 6.152,-13.738 13.738,-13.738" style="fill:#6c97d4;fill-opacity:1;fill-rule:nonzero;stroke:none" id="path36"/>
      <path d="m 508.941,848.914 c 7.59,0 13.739,6.152 13.739,13.738 0,7.578 -6.149,13.731 -13.739,13.731 -7.589,0 -13.742,-6.153 -13.742,-13.731 0,-7.586 6.153,-13.738 13.742,-13.738" style="fill:#6c97d4;fill-opacity:1;fill-rule:nonzero;stroke:none" id="path38"/>
      <path d="m 544.313,848.914 c 7.589,0 13.738,6.152 13.738,13.738 0,7.578 -6.149,13.731 -13.738,13.731 -7.59,0 -13.743,-6.153 -13.743,-13.731 0,-7.586 6.153,-13.738 13.743,-13.738" style="fill:#6c97d4;fill-opacity:1;fill-rule:nonzero;stroke:none" id="path40"/>
      <path d="m 225.973,813.543 c 7.586,0 13.738,6.152 13.738,13.738 0,7.578 -6.152,13.731 -13.738,13.731 -7.594,0 -13.743,-6.153 -13.743,-13.731 0,-7.586 6.149,-13.738 13.743,-13.738" style="fill:#6c97d4;fill-opacity:1;fill-rule:nonzero;stroke:none" id="path42"/>
      <path d="m 261.344,813.543 c 7.586,0 13.738,6.152 13.738,13.738 0,7.578 -6.152,13.731 -13.738,13.731 -7.594,0 -13.742,-6.153 -13.742,-13.731 0,-7.586 6.148,-13.738 13.742,-13.738" style="fill:#6c97d4;fill-opacity:1;fill-rule:nonzero;stroke:none" id="path44"/>
      <path d="m 296.715,813.543 c 7.586,0 13.738,6.152 13.738,13.738 0,7.578 -6.152,13.731 -13.738,13.731 -7.594,0 -13.742,-6.153 -13.742,-13.731 0,-7.586 6.148,-13.738 13.742,-13.738" style="fill:#6c97d4;fill-opacity:1;fill-rule:nonzero;stroke:none" id="path46"/>
      <path d="m 332.086,813.543 c 7.586,0 13.738,6.152 13.738,13.738 0,7.578 -6.152,13.731 -13.738,13.731 -7.594,0 -13.742,-6.153 -13.742,-13.731 0,-7.586 6.148,-13.738 13.742,-13.738" style="fill:#6c97d4;fill-opacity:1;fill-rule:nonzero;stroke:none" id="path48"/>
      <path d="m 367.453,813.543 c 7.59,0 13.742,6.152 13.742,13.738 0,7.578 -6.152,13.731 -13.742,13.731 -7.586,0 -13.738,-6.153 -13.738,-13.731 0,-7.586 6.152,-13.738 13.738,-13.738" style="fill:#6c97d4;fill-opacity:1;fill-rule:nonzero;stroke:none" id="path50"/>
      <path d="m 402.824,813.543 c 7.59,0 13.742,6.152 13.742,13.738 0,7.578 -6.152,13.731 -13.742,13.731 -7.586,0 -13.738,-6.153 -13.738,-13.731 0,-7.586 6.152,-13.738 13.738,-13.738" style="fill:#6c97d4;fill-opacity:1;fill-rule:nonzero;stroke:none" id="path52"/>
      <path d="m 438.195,813.543 c 7.594,0 13.743,6.152 13.743,13.738 0,7.578 -6.149,13.731 -13.743,13.731 -7.586,0 -13.738,-6.153 -13.738,-13.731 0,-7.586 6.152,-13.738 13.738,-13.738" style="fill:#6c97d4;fill-opacity:1;fill-rule:nonzero;stroke:none" id="path54"/>
      <path d="m 473.566,813.543 c 7.594,0 13.743,6.152 13.743,13.738 0,7.578 -6.149,13.731 -13.743,13.731 -7.586,0 -13.738,-6.153 -13.738,-13.731 0,-7.586 6.152,-13.738 13.738,-13.738" style="fill:#6c97d4;fill-opacity:1;fill-rule:nonzero;stroke:none" id="path56"/>
      <path d="m 508.941,813.543 c 7.59,0 13.739,6.152 13.739,13.738 0,7.578 -6.149,13.731 -13.739,13.731 -7.589,0 -13.742,-6.153 -13.742,-13.731 0,-7.586 6.153,-13.738 13.742,-13.738" style="fill:#6c97d4;fill-opacity:1;fill-rule:nonzero;stroke:none" id="path58"/>
      <path d="m 544.313,813.543 c 7.589,0 13.738,6.152 13.738,13.738 0,7.578 -6.149,13.731 -13.738,13.731 -7.59,0 -13.743,-6.153 -13.743,-13.731 0,-7.586 6.153,-13.738 13.743,-13.738" style="fill:#6c97d4;fill-opacity:1;fill-rule:nonzero;stroke:none" id="path60"/>
      <path d="m 579.684,813.543 c 7.589,0 13.738,6.152 13.738,13.738 0,7.578 -6.149,13.731 -13.738,13.731 -7.59,0 -13.743,-6.153 -13.743,-13.731 0,-7.586 6.153,-13.738 13.743,-13.738" style="fill:#182455;fill-opacity:1;fill-rule:nonzero;stroke:none" id="path62"/>
      <path d="m 119.852,778.172 c 7.593,0 13.742,6.152 13.742,13.738 0,7.582 -6.149,13.731 -13.742,13.731 -7.586,0 -13.735,-6.149 -13.735,-13.731 0,-7.586 6.149,-13.738 13.735,-13.738" style="fill:#6c97d4;fill-opacity:1;fill-rule:nonzero;stroke:none" id="path64"/>
      <path d="m 155.223,778.172 c 7.593,0 13.742,6.152 13.742,13.738 0,7.582 -6.149,13.731 -13.742,13.731 -7.586,0 -13.735,-6.149 -13.735,-13.731 0,-7.586 6.149,-13.738 13.735,-13.738" style="fill:#6c97d4;fill-opacity:1;fill-rule:nonzero;stroke:none" id="path66"/>
      <path d="m 225.973,778.172 c 7.586,0 13.738,6.152 13.738,13.738 0,7.582 -6.152,13.731 -13.738,13.731 -7.594,0 -13.743,-6.149 -13.743,-13.731 0,-7.586 6.149,-13.738 13.743,-13.738" style="fill:#6c97d4;fill-opacity:1;fill-rule:nonzero;stroke:none" id="path68"/>
      <path d="m 261.344,778.172 c 7.586,0 13.738,6.152 13.738,13.738 0,7.582 -6.152,13.731 -13.738,13.731 -7.594,0 -13.742,-6.149 -13.742,-13.731 0,-7.586 6.148,-13.738 13.742,-13.738" style="fill:#6c97d4;fill-opacity:1;fill-rule:nonzero;stroke:none" id="path70"/>
      <path d="m 296.715,778.172 c 7.586,0 13.738,6.152 13.738,13.738 0,7.582 -6.152,13.731 -13.738,13.731 -7.594,0 -13.742,-6.149 -13.742,-13.731 0,-7.586 6.148,-13.738 13.742,-13.738" style="fill:#6c97d4;fill-opacity:1;fill-rule:nonzero;stroke:none" id="path72"/>
      <path d="m 332.086,778.172 c 7.586,0 13.738,6.152 13.738,13.738 0,7.582 -6.152,13.731 -13.738,13.731 -7.594,0 -13.742,-6.149 -13.742,-13.731 0,-7.586 6.148,-13.738 13.742,-13.738" style="fill:#6c97d4;fill-opacity:1;fill-rule:nonzero;stroke:none" id="path74"/>
      <path d="m 367.453,778.172 c 7.59,0 13.742,6.152 13.742,13.738 0,7.582 -6.152,13.731 -13.742,13.731 -7.586,0 -13.738,-6.149 -13.738,-13.731 0,-7.586 6.152,-13.738 13.738,-13.738" style="fill:#6c97d4;fill-opacity:1;fill-rule:nonzero;stroke:none" id="path76"/>
      <path d="m 402.824,778.172 c 7.59,0 13.742,6.152 13.742,13.738 0,7.582 -6.152,13.731 -13.742,13.731 -7.586,0 -13.738,-6.149 -13.738,-13.731 0,-7.586 6.152,-13.738 13.738,-13.738" style="fill:#6c97d4;fill-opacity:1;fill-rule:nonzero;stroke:none" id="path78"/>
      <path d="m 438.195,778.172 c 7.594,0 13.743,6.152 13.743,13.738 0,7.582 -6.149,13.731 -13.743,13.731 -7.586,0 -13.738,-6.149 -13.738,-13.731 0,-7.586 6.152,-13.738 13.738,-13.738" style="fill:#6c97d4;fill-opacity:1;fill-rule:nonzero;stroke:none" id="path80"/>
      <path d="m 473.566,778.172 c 7.594,0 13.743,6.152 13.743,13.738 0,7.582 -6.149,13.731 -13.743,13.731 -7.586,0 -13.738,-6.149 -13.738,-13.731 0,-7.586 6.152,-13.738 13.738,-13.738" style="fill:#6c97d4;fill-opacity:1;fill-rule:nonzero;stroke:none" id="path82"/>
      <path d="m 508.941,778.172 c 7.59,0 13.739,6.152 13.739,13.738 0,7.582 -6.149,13.731 -13.739,13.731 -7.589,0 -13.742,-6.149 -13.742,-13.731 0,-7.586 6.153,-13.738 13.742,-13.738" style="fill:#6c97d4;fill-opacity:1;fill-rule:nonzero;stroke:none" id="path84"/>
      <path d="m 544.313,778.172 c 7.589,0 13.738,6.152 13.738,13.738 0,7.582 -6.149,13.731 -13.738,13.731 -7.59,0 -13.743,-6.149 -13.743,-13.731 0,-7.586 6.153,-13.738 13.743,-13.738" style="fill:#6c97d4;fill-opacity:1;fill-rule:nonzero;stroke:none" id="path86"/>
      <path d="m 579.684,778.172 c 7.589,0 13.738,6.152 13.738,13.738 0,7.582 -6.149,13.731 -13.738,13.731 -7.59,0 -13.743,-6.149 -13.743,-13.731 0,-7.586 6.153,-13.738 13.743,-13.738" style="fill:#6c97d4;fill-opacity:1;fill-rule:nonzero;stroke:none" id="path88"/>
      <path d="m 615.055,778.172 c 7.59,0 13.738,6.152 13.738,13.738 0,7.582 -6.148,13.731 -13.738,13.731 -7.59,0 -13.742,-6.149 -13.742,-13.731 0,-7.586 6.152,-13.738 13.742,-13.738" style="fill:#6c97d4;fill-opacity:1;fill-rule:nonzero;stroke:none" id="path90"/>
      <path d="m 119.852,742.801 c 7.593,0 13.742,6.152 13.742,13.738 0,7.578 -6.149,13.731 -13.742,13.731 -7.586,0 -13.735,-6.153 -13.735,-13.731 0,-7.586 6.149,-13.738 13.735,-13.738" style="fill:#6c97d4;fill-opacity:1;fill-rule:nonzero;stroke:none" id="path92"/>
      <path d="m 155.223,742.801 c 7.593,0 13.742,6.152 13.742,13.738 0,7.578 -6.149,13.731 -13.742,13.731 -7.586,0 -13.735,-6.153 -13.735,-13.731 0,-7.586 6.149,-13.738 13.735,-13.738" style="fill:#6c97d4;fill-opacity:1;fill-rule:nonzero;stroke:none" id="path94"/>
      <path d="m 190.602,742.801 c 7.586,0 13.738,6.152 13.738,13.738 0,7.578 -6.152,13.731 -13.738,13.731 -7.594,0 -13.743,-6.153 -13.743,-13.731 0,-7.586 6.149,-13.738 13.743,-13.738" style="fill:#6c97d4;fill-opacity:1;fill-rule:nonzero;stroke:none" id="path96"/>
      <path d="m 225.973,742.801 c 7.586,0 13.738,6.152 13.738,13.738 0,7.578 -6.152,13.731 -13.738,13.731 -7.594,0 -13.743,-6.153 -13.743,-13.731 0,-7.586 6.149,-13.738 13.743,-13.738" style="fill:#6c97d4;fill-opacity:1;fill-rule:nonzero;stroke:none" id="path98"/>
      <path d="m 261.344,742.801 c 7.586,0 13.738,6.152 13.738,13.738 0,7.578 -6.152,13.731 -13.738,13.731 -7.594,0 -13.742,-6.153 -13.742,-13.731 0,-7.586 6.148,-13.738 13.742,-13.738" style="fill:#6c97d4;fill-opacity:1;fill-rule:nonzero;stroke:none" id="path100"/>
      <path d="m 296.715,742.801 c 7.586,0 13.738,6.152 13.738,13.738 0,7.578 -6.152,13.731 -13.738,13.731 -7.594,0 -13.742,-6.153 -13.742,-13.731 0,-7.586 6.148,-13.738 13.742,-13.738" style="fill:#6c97d4;fill-opacity:1;fill-rule:nonzero;stroke:none" id="path102"/>
      <path d="m 332.086,742.801 c 7.586,0 13.738,6.152 13.738,13.738 0,7.578 -6.152,13.731 -13.738,13.731 -7.594,0 -13.742,-6.153 -13.742,-13.731 0,-7.586 6.148,-13.738 13.742,-13.738" style="fill:#6c97d4;fill-opacity:1;fill-rule:nonzero;stroke:none" id="path104"/>
      <path d="m 367.453,742.801 c 7.59,0 13.742,6.152 13.742,13.738 0,7.578 -6.152,13.731 -13.742,13.731 -7.586,0 -13.738,-6.153 -13.738,-13.731 0,-7.586 6.152,-13.738 13.738,-13.738" style="fill:#6c97d4;fill-opacity:1;fill-rule:nonzero;stroke:none" id="path106"/>
      <path d="m 402.824,742.801 c 7.59,0 13.742,6.152 13.742,13.738 0,7.578 -6.152,13.731 -13.742,13.731 -7.586,0 -13.738,-6.153 -13.738,-13.731 0,-7.586 6.152,-13.738 13.738,-13.738" style="fill:#6c97d4;fill-opacity:1;fill-rule:nonzero;stroke:none" id="path108"/>
      <path d="m 438.195,742.801 c 7.594,0 13.743,6.152 13.743,13.738 0,7.578 -6.149,13.731 -13.743,13.731 -7.586,0 -13.738,-6.153 -13.738,-13.731 0,-7.586 6.152,-13.738 13.738,-13.738" style="fill:#6c97d4;fill-opacity:1;fill-rule:nonzero;stroke:none" id="path110"/>
      <path d="m 473.566,742.801 c 7.594,0 13.743,6.152 13.743,13.738 0,7.578 -6.149,13.731 -13.743,13.731 -7.586,0 -13.738,-6.153 -13.738,-13.731 0,-7.586 6.152,-13.738 13.738,-13.738" style="fill:#6c97d4;fill-opacity:1;fill-rule:nonzero;stroke:none" id="path112"/>
      <path d="m 508.941,742.801 c 7.59,0 13.739,6.152 13.739,13.738 0,7.578 -6.149,13.731 -13.739,13.731 -7.589,0 -13.742,-6.153 -13.742,-13.731 0,-7.586 6.153,-13.738 13.742,-13.738" style="fill:#6c97d4;fill-opacity:1;fill-rule:nonzero;stroke:none" id="path114"/>
      <path d="m 544.313,742.801 c 7.589,0 13.738,6.152 13.738,13.738 0,7.578 -6.149,13.731 -13.738,13.731 -7.59,0 -13.743,-6.153 -13.743,-13.731 0,-7.586 6.153,-13.738 13.743,-13.738" style="fill:#6c97d4;fill-opacity:1;fill-rule:nonzero;stroke:none" id="path116"/>
      <path d="m 579.684,742.801 c 7.589,0 13.738,6.152 13.738,13.738 0,7.578 -6.149,13.731 -13.738,13.731 -7.59,0 -13.743,-6.153 -13.743,-13.731 0,-7.586 6.153,-13.738 13.743,-13.738" style="fill:#6c97d4;fill-opacity:1;fill-rule:nonzero;stroke:none" id="path118"/>
      <path d="m 615.055,742.801 c 7.59,0 13.738,6.152 13.738,13.738 0,7.578 -6.148,13.731 -13.738,13.731 -7.59,0 -13.742,-6.153 -13.742,-13.731 0,-7.586 6.152,-13.738 13.742,-13.738" style="fill:#6c97d4;fill-opacity:1;fill-rule:nonzero;stroke:none" id="path120"/>
      <path d="m 650.426,742.801 c 7.59,0 13.738,6.152 13.738,13.738 0,7.578 -6.148,13.731 -13.738,13.731 -7.59,0 -13.742,-6.153 -13.742,-13.731 0,-7.586 6.152,-13.738 13.742,-13.738" style="fill:#6c97d4;fill-opacity:1;fill-rule:nonzero;stroke:none" id="path122"/>
      <path d="m 84.4805,707.43 c 7.5937,0 13.7422,6.152 13.7422,13.738 0,7.578 -6.1485,13.73 -13.7422,13.73 -7.586,0 -13.7383,-6.152 -13.7383,-13.73 0,-7.586 6.1523,-13.738 13.7383,-13.738" style="fill:#6c97d4;fill-opacity:1;fill-rule:nonzero;stroke:none" id="path124"/>
      <path d="m 119.852,707.43 c 7.593,0 13.742,6.152 13.742,13.738 0,7.578 -6.149,13.73 -13.742,13.73 -7.586,0 -13.735,-6.152 -13.735,-13.73 0,-7.586 6.149,-13.738 13.735,-13.738" style="fill:#6c97d4;fill-opacity:1;fill-rule:nonzero;stroke:none" id="path126"/>
      <path d="m 155.223,707.43 c 7.593,0 13.742,6.152 13.742,13.738 0,7.578 -6.149,13.73 -13.742,13.73 -7.586,0 -13.735,-6.152 -13.735,-13.73 0,-7.586 6.149,-13.738 13.735,-13.738" style="fill:#6c97d4;fill-opacity:1;fill-rule:nonzero;stroke:none" id="path128"/>
      <path d="m 190.602,707.43 c 7.586,0 13.738,6.152 13.738,13.738 0,7.578 -6.152,13.73 -13.738,13.73 -7.594,0 -13.743,-6.152 -13.743,-13.73 0,-7.586 6.149,-13.738 13.743,-13.738" style="fill:#6c97d4;fill-opacity:1;fill-rule:nonzero;stroke:none" id="path130"/>
      <path d="m 225.973,707.43 c 7.586,0 13.738,6.152 13.738,13.738 0,7.578 -6.152,13.73 -13.738,13.73 -7.594,0 -13.743,-6.152 -13.743,-13.73 0,-7.586 6.149,-13.738 13.743,-13.738" style="fill:#6c97d4;fill-opacity:1;fill-rule:nonzero;stroke:none" id="path132"/>
      <path d="m 261.344,707.43 c 7.586,0 13.738,6.152 13.738,13.738 0,7.578 -6.152,13.73 -13.738,13.73 -7.594,0 -13.742,-6.152 -13.742,-13.73 0,-7.586 6.148,-13.738 13.742,-13.738" style="fill:#6c97d4;fill-opacity:1;fill-rule:nonzero;stroke:none" id="path134"/>
      <path d="m 296.715,707.43 c 7.586,0 13.738,6.152 13.738,13.738 0,7.578 -6.152,13.73 -13.738,13.73 -7.594,0 -13.742,-6.152 -13.742,-13.73 0,-7.586 6.148,-13.738 13.742,-13.738" style="fill:#6c97d4;fill-opacity:1;fill-rule:nonzero;stroke:none" id="path136"/>
      <path d="m 332.086,707.43 c 7.586,0 13.738,6.152 13.738,13.738 0,7.578 -6.152,13.73 -13.738,13.73 -7.594,0 -13.742,-6.152 -13.742,-13.73 0,-7.586 6.148,-13.738 13.742,-13.738" style="fill:#6c97d4;fill-opacity:1;fill-rule:nonzero;stroke:none" id="path138"/>
      <path d="m 367.453,707.43 c 7.59,0 13.742,6.152 13.742,13.738 0,7.578 -6.152,13.73 -13.742,13.73 -7.586,0 -13.738,-6.152 -13.738,-13.73 0,-7.586 6.152,-13.738 13.738,-13.738" style="fill:#6c97d4;fill-opacity:1;fill-rule:nonzero;stroke:none" id="path140"/>
      <path d="m 402.824,707.43 c 7.59,0 13.742,6.152 13.742,13.738 0,7.578 -6.152,13.73 -13.742,13.73 -7.586,0 -13.738,-6.152 -13.738,-13.73 0,-7.586 6.152,-13.738 13.738,-13.738" style="fill:#6c97d4;fill-opacity:1;fill-rule:nonzero;stroke:none" id="path142"/>
      <path d="m 438.195,707.43 c 7.594,0 13.743,6.152 13.743,13.738 0,7.578 -6.149,13.73 -13.743,13.73 -7.586,0 -13.738,-6.152 -13.738,-13.73 0,-7.586 6.152,-13.738 13.738,-13.738" style="fill:#6c97d4;fill-opacity:1;fill-rule:nonzero;stroke:none" id="path144"/>
      <path d="m 473.566,707.43 c 7.594,0 13.743,6.152 13.743,13.738 0,7.578 -6.149,13.73 -13.743,13.73 -7.586,0 -13.738,-6.152 -13.738,-13.73 0,-7.586 6.152,-13.738 13.738,-13.738" style="fill:#6c97d4;fill-opacity:1;fill-rule:nonzero;stroke:none" id="path146"/>
      <path d="m 508.941,707.43 c 7.59,0 13.739,6.152 13.739,13.738 0,7.578 -6.149,13.73 -13.739,13.73 -7.589,0 -13.742,-6.152 -13.742,-13.73 0,-7.586 6.153,-13.738 13.742,-13.738" style="fill:#6c97d4;fill-opacity:1;fill-rule:nonzero;stroke:none" id="path148"/>
      <path d="m 544.313,707.43 c 7.589,0 13.738,6.152 13.738,13.738 0,7.578 -6.149,13.73 -13.738,13.73 -7.59,0 -13.743,-6.152 -13.743,-13.73 0,-7.586 6.153,-13.738 13.743,-13.738" style="fill:#6c97d4;fill-opacity:1;fill-rule:nonzero;stroke:none" id="path150"/>
      <path d="m 579.684,707.43 c 7.589,0 13.738,6.152 13.738,13.738 0,7.578 -6.149,13.73 -13.738,13.73 -7.59,0 -13.743,-6.152 -13.743,-13.73 0,-7.586 6.153,-13.738 13.743,-13.738" style="fill:#6c97d4;fill-opacity:1;fill-rule:nonzero;stroke:none" id="path152"/>
      <path d="m 615.055,707.43 c 7.59,0 13.738,6.152 13.738,13.738 0,7.578 -6.148,13.73 -13.738,13.73 -7.59,0 -13.742,-6.152 -13.742,-13.73 0,-7.586 6.152,-13.738 13.742,-13.738" style="fill:#6c97d4;fill-opacity:1;fill-rule:nonzero;stroke:none" id="path154"/>
      <path d="m 84.4805,672.059 c 7.5937,0 13.7422,6.144 13.7422,13.738 0,7.578 -6.1485,13.73 -13.7422,13.73 -7.586,0 -13.7383,-6.152 -13.7383,-13.73 0,-7.594 6.1523,-13.738 13.7383,-13.738" style="fill:#6c97d4;fill-opacity:1;fill-rule:nonzero;stroke:none" id="path156"/>
      <path d="m 119.852,672.059 c 7.593,0 13.742,6.144 13.742,13.738 0,7.578 -6.149,13.73 -13.742,13.73 -7.586,0 -13.735,-6.152 -13.735,-13.73 0,-7.594 6.149,-13.738 13.735,-13.738" style="fill:#6c97d4;fill-opacity:1;fill-rule:nonzero;stroke:none" id="path158"/>
      <path d="m 155.223,672.059 c 7.593,0 13.742,6.144 13.742,13.738 0,7.578 -6.149,13.73 -13.742,13.73 -7.586,0 -13.735,-6.152 -13.735,-13.73 0,-7.594 6.149,-13.738 13.735,-13.738" style="fill:#6c97d4;fill-opacity:1;fill-rule:nonzero;stroke:none" id="path160"/>
      <path d="m 190.602,672.059 c 7.586,0 13.738,6.144 13.738,13.738 0,7.578 -6.152,13.73 -13.738,13.73 -7.594,0 -13.743,-6.152 -13.743,-13.73 0,-7.594 6.149,-13.738 13.743,-13.738" style="fill:#6c97d4;fill-opacity:1;fill-rule:nonzero;stroke:none" id="path162"/>
      <path d="m 225.973,672.059 c 7.586,0 13.738,6.144 13.738,13.738 0,7.578 -6.152,13.73 -13.738,13.73 -7.594,0 -13.743,-6.152 -13.743,-13.73 0,-7.594 6.149,-13.738 13.743,-13.738" style="fill:#6c97d4;fill-opacity:1;fill-rule:nonzero;stroke:none" id="path164"/>
      <path d="m 261.344,672.059 c 7.586,0 13.738,6.144 13.738,13.738 0,7.578 -6.152,13.73 -13.738,13.73 -7.594,0 -13.742,-6.152 -13.742,-13.73 0,-7.594 6.148,-13.738 13.742,-13.738" style="fill:#6c97d4;fill-opacity:1;fill-rule:nonzero;stroke:none" id="path166"/>
      <path d="m 296.715,672.059 c 7.586,0 13.738,6.144 13.738,13.738 0,7.578 -6.152,13.73 -13.738,13.73 -7.594,0 -13.742,-6.152 -13.742,-13.73 0,-7.594 6.148,-13.738 13.742,-13.738" style="fill:#6c97d4;fill-opacity:1;fill-rule:nonzero;stroke:none" id="path168"/>
      <path d="m 332.086,672.059 c 7.586,0 13.738,6.144 13.738,13.738 0,7.578 -6.152,13.73 -13.738,13.73 -7.594,0 -13.742,-6.152 -13.742,-13.73 0,-7.594 6.148,-13.738 13.742,-13.738" style="fill:#6c97d4;fill-opacity:1;fill-rule:nonzero;stroke:none" id="path170"/>
      <path d="m 367.453,672.059 c 7.59,0 13.742,6.144 13.742,13.738 0,7.578 -6.152,13.73 -13.742,13.73 -7.586,0 -13.738,-6.152 -13.738,-13.73 0,-7.594 6.152,-13.738 13.738,-13.738" style="fill:#6c97d4;fill-opacity:1;fill-rule:nonzero;stroke:none" id="path172"/>
      <path d="m 402.824,672.059 c 7.59,0 13.742,6.144 13.742,13.738 0,7.578 -6.152,13.73 -13.742,13.73 -7.586,0 -13.738,-6.152 -13.738,-13.73 0,-7.594 6.152,-13.738 13.738,-13.738" style="fill:#6c97d4;fill-opacity:1;fill-rule:nonzero;stroke:none" id="path174"/>
      <path d="m 438.195,672.059 c 7.594,0 13.743,6.144 13.743,13.738 0,7.578 -6.149,13.73 -13.743,13.73 -7.586,0 -13.738,-6.152 -13.738,-13.73 0,-7.594 6.152,-13.738 13.738,-13.738" style="fill:#6c97d4;fill-opacity:1;fill-rule:nonzero;stroke:none" id="path176"/>
      <path d="m 473.566,672.059 c 7.594,0 13.743,6.144 13.743,13.738 0,7.578 -6.149,13.73 -13.743,13.73 -7.586,0 -13.738,-6.152 -13.738,-13.73 0,-7.594 6.152,-13.738 13.738,-13.738" style="fill:#6c97d4;fill-opacity:1;fill-rule:nonzero;stroke:none" id="path178"/>
      <path d="m 508.941,672.059 c 7.59,0 13.739,6.144 13.739,13.738 0,7.578 -6.149,13.73 -13.739,13.73 -7.589,0 -13.742,-6.152 -13.742,-13.73 0,-7.594 6.153,-13.738 13.742,-13.738" style="fill:#6c97d4;fill-opacity:1;fill-rule:nonzero;stroke:none" id="path180"/>
      <path d="m 544.313,672.059 c 7.589,0 13.738,6.144 13.738,13.738 0,7.578 -6.149,13.73 -13.738,13.73 -7.59,0 -13.743,-6.152 -13.743,-13.73 0,-7.594 6.153,-13.738 13.743,-13.738" style="fill:#6c97d4;fill-opacity:1;fill-rule:nonzero;stroke:none" id="path182"/>
      <path d="m 579.684,672.059 c 7.589,0 13.738,6.144 13.738,13.738 0,7.578 -6.149,13.73 -13.738,13.73 -7.59,0 -13.743,-6.152 -13.743,-13.73 0,-7.594 6.153,-13.738 13.743,-13.738" style="fill:#6c97d4;fill-opacity:1;fill-rule:nonzero;stroke:none" id="path184"/>
      <path d="m 615.055,672.059 c 7.59,0 13.738,6.144 13.738,13.738 0,7.578 -6.148,13.73 -13.738,13.73 -7.59,0 -13.742,-6.152 -13.742,-13.73 0,-7.594 6.152,-13.738 13.742,-13.738" style="fill:#6c97d4;fill-opacity:1;fill-rule:nonzero;stroke:none" id="path186"/>
      <path d="m 84.4805,636.688 c 7.5937,0 13.7422,6.148 13.7422,13.738 0,7.578 -6.1485,13.73 -13.7422,13.73 -7.586,0 -13.7383,-6.152 -13.7383,-13.73 0,-7.59 6.1523,-13.738 13.7383,-13.738" style="fill:#6c97d4;fill-opacity:1;fill-rule:nonzero;stroke:none" id="path188"/>
      <path d="m 119.852,636.688 c 7.593,0 13.742,6.148 13.742,13.738 0,7.578 -6.149,13.73 -13.742,13.73 -7.586,0 -13.735,-6.152 -13.735,-13.73 0,-7.59 6.149,-13.738 13.735,-13.738" style="fill:#6c97d4;fill-opacity:1;fill-rule:nonzero;stroke:none" id="path190"/>
      <path d="m 155.223,636.688 c 7.593,0 13.742,6.148 13.742,13.738 0,7.578 -6.149,13.73 -13.742,13.73 -7.586,0 -13.735,-6.152 -13.735,-13.73 0,-7.59 6.149,-13.738 13.735,-13.738" style="fill:#6c97d4;fill-opacity:1;fill-rule:nonzero;stroke:none" id="path192"/>
      <path d="m 190.602,636.688 c 7.586,0 13.738,6.148 13.738,13.738 0,7.578 -6.152,13.73 -13.738,13.73 -7.594,0 -13.743,-6.152 -13.743,-13.73 0,-7.59 6.149,-13.738 13.743,-13.738" style="fill:#6c97d4;fill-opacity:1;fill-rule:nonzero;stroke:none" id="path194"/>
      <path d="m 225.973,636.688 c 7.586,0 13.738,6.148 13.738,13.738 0,7.578 -6.152,13.73 -13.738,13.73 -7.594,0 -13.743,-6.152 -13.743,-13.73 0,-7.59 6.149,-13.738 13.743,-13.738" style="fill:#6c97d4;fill-opacity:1;fill-rule:nonzero;stroke:none" id="path196"/>
      <path d="m 261.344,636.688 c 7.586,0 13.738,6.148 13.738,13.738 0,7.578 -6.152,13.73 -13.738,13.73 -7.594,0 -13.742,-6.152 -13.742,-13.73 0,-7.59 6.148,-13.738 13.742,-13.738" style="fill:#6c97d4;fill-opacity:1;fill-rule:nonzero;stroke:none" id="path198"/>
      <path d="m 296.715,636.688 c 7.586,0 13.738,6.148 13.738,13.738 0,7.578 -6.152,13.73 -13.738,13.73 -7.594,0 -13.742,-6.152 -13.742,-13.73 0,-7.59 6.148,-13.738 13.742,-13.738" style="fill:#6c97d4;fill-opacity:1;fill-rule:nonzero;stroke:none" id="path200"/>
      <path d="m 332.086,636.688 c 7.586,0 13.738,6.148 13.738,13.738 0,7.578 -6.152,13.73 -13.738,13.73 -7.594,0 -13.742,-6.152 -13.742,-13.73 0,-7.59 6.148,-13.738 13.742,-13.738" style="fill:#6c97d4;fill-opacity:1;fill-rule:nonzero;stroke:none" id="path202"/>
      <path d="m 367.453,636.688 c 7.59,0 13.742,6.148 13.742,13.738 0,7.578 -6.152,13.73 -13.742,13.73 -7.586,0 -13.738,-6.152 -13.738,-13.73 0,-7.59 6.152,-13.738 13.738,-13.738" style="fill:#6c97d4;fill-opacity:1;fill-rule:nonzero;stroke:none" id="path204"/>
      <path d="m 402.824,636.688 c 7.59,0 13.742,6.148 13.742,13.738 0,7.578 -6.152,13.73 -13.742,13.73 -7.586,0 -13.738,-6.152 -13.738,-13.73 0,-7.59 6.152,-13.738 13.738,-13.738" style="fill:#6c97d4;fill-opacity:1;fill-rule:nonzero;stroke:none" id="path206"/>
      <path d="m 438.195,636.688 c 7.594,0 13.743,6.148 13.743,13.738 0,7.578 -6.149,13.73 -13.743,13.73 -7.586,0 -13.738,-6.152 -13.738,-13.73 0,-7.59 6.152,-13.738 13.738,-13.738" style="fill:#6c97d4;fill-opacity:1;fill-rule:nonzero;stroke:none" id="path208"/>
      <path d="m 473.566,636.688 c 7.594,0 13.743,6.148 13.743,13.738 0,7.578 -6.149,13.73 -13.743,13.73 -7.586,0 -13.738,-6.152 -13.738,-13.73 0,-7.59 6.152,-13.738 13.738,-13.738" style="fill:#6c97d4;fill-opacity:1;fill-rule:nonzero;stroke:none" id="path210"/>
      <path d="m 508.941,636.688 c 7.59,0 13.739,6.148 13.739,13.738 0,7.578 -6.149,13.73 -13.739,13.73 -7.589,0 -13.742,-6.152 -13.742,-13.73 0,-7.59 6.153,-13.738 13.742,-13.738" style="fill:#6c97d4;fill-opacity:1;fill-rule:nonzero;stroke:none" id="path212"/>
      <path d="m 544.313,636.688 c 7.589,0 13.738,6.148 13.738,13.738 0,7.578 -6.149,13.73 -13.738,13.73 -7.59,0 -13.743,-6.152 -13.743,-13.73 0,-7.59 6.153,-13.738 13.743,-13.738" style="fill:#6c97d4;fill-opacity:1;fill-rule:nonzero;stroke:none" id="path214"/>
      <path d="m 579.684,636.688 c 7.589,0 13.738,6.148 13.738,13.738 0,7.578 -6.149,13.73 -13.738,13.73 -7.59,0 -13.743,-6.152 -13.743,-13.73 0,-7.59 6.153,-13.738 13.743,-13.738" style="fill:#6c97d4;fill-opacity:1;fill-rule:nonzero;stroke:none" id="path216"/>
      <path d="m 615.055,636.688 c 7.59,0 13.738,6.148 13.738,13.738 0,7.578 -6.148,13.73 -13.738,13.73 -7.59,0 -13.742,-6.152 -13.742,-13.73 0,-7.59 6.152,-13.738 13.742,-13.738" style="fill:#6c97d4;fill-opacity:1;fill-rule:nonzero;stroke:none" id="path218"/>
      <path d="m 650.426,636.688 c 7.59,0 13.738,6.148 13.738,13.738 0,7.578 -6.148,13.73 -13.738,13.73 -7.59,0 -13.742,-6.152 -13.742,-13.73 0,-7.59 6.152,-13.738 13.742,-13.738" style="fill:#6c97d4;fill-opacity:1;fill-rule:nonzero;stroke:none" id="path220"/>
      <path d="m 84.4805,601.316 c 7.5937,0 13.7422,6.149 13.7422,13.739 0,7.578 -6.1485,13.73 -13.7422,13.73 -7.586,0 -13.7383,-6.152 -13.7383,-13.73 0,-7.59 6.1523,-13.739 13.7383,-13.739" style="fill:#6c97d4;fill-opacity:1;fill-rule:nonzero;stroke:none" id="path222"/>
      <path d="m 119.852,601.316 c 7.593,0 13.742,6.149 13.742,13.739 0,7.578 -6.149,13.73 -13.742,13.73 -7.586,0 -13.735,-6.152 -13.735,-13.73 0,-7.59 6.149,-13.739 13.735,-13.739" style="fill:#6c97d4;fill-opacity:1;fill-rule:nonzero;stroke:none" id="path224"/>
      <path d="m 155.223,601.316 c 7.593,0 13.742,6.149 13.742,13.739 0,7.578 -6.149,13.73 -13.742,13.73 -7.586,0 -13.735,-6.152 -13.735,-13.73 0,-7.59 6.149,-13.739 13.735,-13.739" style="fill:#6c97d4;fill-opacity:1;fill-rule:nonzero;stroke:none" id="path226"/>
      <path d="m 190.602,601.316 c 7.586,0 13.738,6.149 13.738,13.739 0,7.578 -6.152,13.73 -13.738,13.73 -7.594,0 -13.743,-6.152 -13.743,-13.73 0,-7.59 6.149,-13.739 13.743,-13.739" style="fill:#6c97d4;fill-opacity:1;fill-rule:nonzero;stroke:none" id="path228"/>
      <path d="m 225.973,601.316 c 7.586,0 13.738,6.149 13.738,13.739 0,7.578 -6.152,13.73 -13.738,13.73 -7.594,0 -13.743,-6.152 -13.743,-13.73 0,-7.59 6.149,-13.739 13.743,-13.739" style="fill:#6c97d4;fill-opacity:1;fill-rule:nonzero;stroke:none" id="path230"/>
      <path d="m 261.344,601.316 c 7.586,0 13.738,6.149 13.738,13.739 0,7.578 -6.152,13.73 -13.738,13.73 -7.594,0 -13.742,-6.152 -13.742,-13.73 0,-7.59 6.148,-13.739 13.742,-13.739" style="fill:#6c97d4;fill-opacity:1;fill-rule:nonzero;stroke:none" id="path232"/>
      <path d="m 296.715,601.316 c 7.586,0 13.738,6.149 13.738,13.739 0,7.578 -6.152,13.73 -13.738,13.73 -7.594,0 -13.742,-6.152 -13.742,-13.73 0,-7.59 6.148,-13.739 13.742,-13.739" style="fill:#6c97d4;fill-opacity:1;fill-rule:nonzero;stroke:none" id="path234"/>
      <path d="m 332.086,601.316 c 7.586,0 13.738,6.149 13.738,13.739 0,7.578 -6.152,13.73 -13.738,13.73 -7.594,0 -13.742,-6.152 -13.742,-13.73 0,-7.59 6.148,-13.739 13.742,-13.739" style="fill:#6c97d4;fill-opacity:1;fill-rule:nonzero;stroke:none" id="path236"/>
      <path d="m 367.453,601.316 c 7.59,0 13.742,6.149 13.742,13.739 0,7.578 -6.152,13.73 -13.742,13.73 -7.586,0 -13.738,-6.152 -13.738,-13.73 0,-7.59 6.152,-13.739 13.738,-13.739" style="fill:#6c97d4;fill-opacity:1;fill-rule:nonzero;stroke:none" id="path238"/>
      <path d="m 402.824,601.316 c 7.59,0 13.742,6.149 13.742,13.739 0,7.578 -6.152,13.73 -13.742,13.73 -7.586,0 -13.738,-6.152 -13.738,-13.73 0,-7.59 6.152,-13.739 13.738,-13.739" style="fill:#6c97d4;fill-opacity:1;fill-rule:nonzero;stroke:none" id="path240"/>
      <path d="m 438.195,601.316 c 7.594,0 13.743,6.149 13.743,13.739 0,7.578 -6.149,13.73 -13.743,13.73 -7.586,0 -13.738,-6.152 -13.738,-13.73 0,-7.59 6.152,-13.739 13.738,-13.739" style="fill:#182455;fill-opacity:1;fill-rule:nonzero;stroke:none" id="path242"/>
      <path d="m 473.566,601.316 c 7.594,0 13.743,6.149 13.743,13.739 0,7.578 -6.149,13.73 -13.743,13.73 -7.586,0 -13.738,-6.152 -13.738,-13.73 0,-7.59 6.152,-13.739 13.738,-13.739" style="fill:#6c97d4;fill-opacity:1;fill-rule:nonzero;stroke:none" id="path244"/>
      <path d="m 508.941,601.316 c 7.59,0 13.739,6.149 13.739,13.739 0,7.578 -6.149,13.73 -13.739,13.73 -7.589,0 -13.742,-6.152 -13.742,-13.73 0,-7.59 6.153,-13.739 13.742,-13.739" style="fill:#6c97d4;fill-opacity:1;fill-rule:nonzero;stroke:none" id="path246"/>
      <path d="m 544.313,601.316 c 7.589,0 13.738,6.149 13.738,13.739 0,7.578 -6.149,13.73 -13.738,13.73 -7.59,0 -13.743,-6.152 -13.743,-13.73 0,-7.59 6.153,-13.739 13.743,-13.739" style="fill:#6c97d4;fill-opacity:1;fill-rule:nonzero;stroke:none" id="path248"/>
      <path d="m 579.684,601.316 c 7.589,0 13.738,6.149 13.738,13.739 0,7.578 -6.149,13.73 -13.738,13.73 -7.59,0 -13.743,-6.152 -13.743,-13.73 0,-7.59 6.153,-13.739 13.743,-13.739" style="fill:#6c97d4;fill-opacity:1;fill-rule:nonzero;stroke:none" id="path250"/>
      <path d="m 615.055,601.316 c 7.59,0 13.738,6.149 13.738,13.739 0,7.578 -6.148,13.73 -13.738,13.73 -7.59,0 -13.742,-6.152 -13.742,-13.73 0,-7.59 6.152,-13.739 13.742,-13.739" style="fill:#6c97d4;fill-opacity:1;fill-rule:nonzero;stroke:none" id="path252"/>
      <path d="m 650.426,601.316 c 7.59,0 13.738,6.149 13.738,13.739 0,7.578 -6.148,13.73 -13.738,13.73 -7.59,0 -13.742,-6.152 -13.742,-13.73 0,-7.59 6.152,-13.739 13.742,-13.739" style="fill:#6c97d4;fill-opacity:1;fill-rule:nonzero;stroke:none" id="path254"/>
      <path d="m 13.7383,565.945 c 7.5937,0 13.7422,6.149 13.7422,13.739 0,7.578 -6.1485,13.73 -13.7422,13.73 C 6.15234,593.414 0,587.262 0,579.684 c 0,-7.59 6.15234,-13.739 13.7383,-13.739" style="fill:#6c97d4;fill-opacity:1;fill-rule:nonzero;stroke:none" id="path256"/>
      <path d="m 49.1094,565.945 c 7.5937,0 13.7422,6.149 13.7422,13.739 0,7.578 -6.1485,13.73 -13.7422,13.73 -7.586,0 -13.7383,-6.152 -13.7383,-13.73 0,-7.59 6.1523,-13.739 13.7383,-13.739" style="fill:#6c97d4;fill-opacity:1;fill-rule:nonzero;stroke:none" id="path258"/>
      <path d="m 84.4805,565.945 c 7.5937,0 13.7422,6.149 13.7422,13.739 0,7.578 -6.1485,13.73 -13.7422,13.73 -7.586,0 -13.7383,-6.152 -13.7383,-13.73 0,-7.59 6.1523,-13.739 13.7383,-13.739" style="fill:#6c97d4;fill-opacity:1;fill-rule:nonzero;stroke:none" id="path260"/>
      <path d="m 119.852,565.945 c 7.593,0 13.742,6.149 13.742,13.739 0,7.578 -6.149,13.73 -13.742,13.73 -7.586,0 -13.735,-6.152 -13.735,-13.73 0,-7.59 6.149,-13.739 13.735,-13.739" style="fill:#6c97d4;fill-opacity:1;fill-rule:nonzero;stroke:none" id="path262"/>
      <path d="m 155.223,565.945 c 7.593,0 13.742,6.149 13.742,13.739 0,7.578 -6.149,13.73 -13.742,13.73 -7.586,0 -13.735,-6.152 -13.735,-13.73 0,-7.59 6.149,-13.739 13.735,-13.739" style="fill:#6c97d4;fill-opacity:1;fill-rule:nonzero;stroke:none" id="path264"/>
      <path d="m 190.602,565.945 c 7.586,0 13.738,6.149 13.738,13.739 0,7.578 -6.152,13.73 -13.738,13.73 -7.594,0 -13.743,-6.152 -13.743,-13.73 0,-7.59 6.149,-13.739 13.743,-13.739" style="fill:#6c97d4;fill-opacity:1;fill-rule:nonzero;stroke:none" id="path266"/>
      <path d="m 225.973,565.945 c 7.586,0 13.738,6.149 13.738,13.739 0,7.578 -6.152,13.73 -13.738,13.73 -7.594,0 -13.743,-6.152 -13.743,-13.73 0,-7.59 6.149,-13.739 13.743,-13.739" style="fill:#6c97d4;fill-opacity:1;fill-rule:nonzero;stroke:none" id="path268"/>
      <path d="m 261.344,565.945 c 7.586,0 13.738,6.149 13.738,13.739 0,7.578 -6.152,13.73 -13.738,13.73 -7.594,0 -13.742,-6.152 -13.742,-13.73 0,-7.59 6.148,-13.739 13.742,-13.739" style="fill:#6c97d4;fill-opacity:1;fill-rule:nonzero;stroke:none" id="path270"/>
      <path d="m 296.715,565.945 c 7.586,0 13.738,6.149 13.738,13.739 0,7.578 -6.152,13.73 -13.738,13.73 -7.594,0 -13.742,-6.152 -13.742,-13.73 0,-7.59 6.148,-13.739 13.742,-13.739" style="fill:#6c97d4;fill-opacity:1;fill-rule:nonzero;stroke:none" id="path272"/>
      <path d="m 332.086,565.945 c 7.586,0 13.738,6.149 13.738,13.739 0,7.578 -6.152,13.73 -13.738,13.73 -7.594,0 -13.742,-6.152 -13.742,-13.73 0,-7.59 6.148,-13.739 13.742,-13.739" style="fill:#6c97d4;fill-opacity:1;fill-rule:nonzero;stroke:none" id="path274"/>
      <path d="m 367.453,565.945 c 7.59,0 13.742,6.149 13.742,13.739 0,7.578 -6.152,13.73 -13.742,13.73 -7.586,0 -13.738,-6.152 -13.738,-13.73 0,-7.59 6.152,-13.739 13.738,-13.739" style="fill:#6c97d4;fill-opacity:1;fill-rule:nonzero;stroke:none" id="path276"/>
      <path d="m 402.824,565.945 c 7.59,0 13.742,6.149 13.742,13.739 0,7.578 -6.152,13.73 -13.742,13.73 -7.586,0 -13.738,-6.152 -13.738,-13.73 0,-7.59 6.152,-13.739 13.738,-13.739" style="fill:#6c97d4;fill-opacity:1;fill-rule:nonzero;stroke:none" id="path278"/>
      <path d="m 438.195,565.945 c 7.594,0 13.743,6.149 13.743,13.739 0,7.578 -6.149,13.73 -13.743,13.73 -7.586,0 -13.738,-6.152 -13.738,-13.73 0,-7.59 6.152,-13.739 13.738,-13.739" style="fill:#6c97d4;fill-opacity:1;fill-rule:nonzero;stroke:none" id="path280"/>
      <path d="m 473.566,565.945 c 7.594,0 13.743,6.149 13.743,13.739 0,7.578 -6.149,13.73 -13.743,13.73 -7.586,0 -13.738,-6.152 -13.738,-13.73 0,-7.59 6.152,-13.739 13.738,-13.739" style="fill:#6c97d4;fill-opacity:1;fill-rule:nonzero;stroke:none" id="path282"/>
      <path d="m 508.941,565.945 c 7.59,0 13.739,6.149 13.739,13.739 0,7.578 -6.149,13.73 -13.739,13.73 -7.589,0 -13.742,-6.152 -13.742,-13.73 0,-7.59 6.153,-13.739 13.742,-13.739" style="fill:#6c97d4;fill-opacity:1;fill-rule:nonzero;stroke:none" id="path284"/>
      <path d="m 544.313,565.945 c 7.589,0 13.738,6.149 13.738,13.739 0,7.578 -6.149,13.73 -13.738,13.73 -7.59,0 -13.743,-6.152 -13.743,-13.73 0,-7.59 6.153,-13.739 13.743,-13.739" style="fill:#6c97d4;fill-opacity:1;fill-rule:nonzero;stroke:none" id="path286"/>
      <path d="m 579.684,565.945 c 7.589,0 13.738,6.149 13.738,13.739 0,7.578 -6.149,13.73 -13.738,13.73 -7.59,0 -13.743,-6.152 -13.743,-13.73 0,-7.59 6.153,-13.739 13.743,-13.739" style="fill:#6c97d4;fill-opacity:1;fill-rule:nonzero;stroke:none" id="path288"/>
      <path d="m 615.055,565.945 c 7.59,0 13.738,6.149 13.738,13.739 0,7.578 -6.148,13.73 -13.738,13.73 -7.59,0 -13.742,-6.152 -13.742,-13.73 0,-7.59 6.152,-13.739 13.742,-13.739" style="fill:#6c97d4;fill-opacity:1;fill-rule:nonzero;stroke:none" id="path290"/>
      <path d="m 650.426,565.945 c 7.59,0 13.738,6.149 13.738,13.739 0,7.578 -6.148,13.73 -13.738,13.73 -7.59,0 -13.742,-6.152 -13.742,-13.73 0,-7.59 6.152,-13.739 13.742,-13.739" style="fill:#6c97d4;fill-opacity:1;fill-rule:nonzero;stroke:none" id="path292"/>
      <path d="m 13.7383,530.574 c 7.5937,0 13.7422,6.149 13.7422,13.739 0,7.578 -6.1485,13.73 -13.7422,13.73 C 6.15234,558.043 0,551.891 0,544.313 c 0,-7.59 6.15234,-13.739 13.7383,-13.739" style="fill:#6c97d4;fill-opacity:1;fill-rule:nonzero;stroke:none" id="path294"/>
      <path d="m 49.1094,530.574 c 7.5937,0 13.7422,6.149 13.7422,13.739 0,7.578 -6.1485,13.73 -13.7422,13.73 -7.586,0 -13.7383,-6.152 -13.7383,-13.73 0,-7.59 6.1523,-13.739 13.7383,-13.739" style="fill:#6c97d4;fill-opacity:1;fill-rule:nonzero;stroke:none" id="path296"/>
      <path d="m 84.4805,530.574 c 7.5937,0 13.7422,6.149 13.7422,13.739 0,7.578 -6.1485,13.73 -13.7422,13.73 -7.586,0 -13.7383,-6.152 -13.7383,-13.73 0,-7.59 6.1523,-13.739 13.7383,-13.739" style="fill:#6c97d4;fill-opacity:1;fill-rule:nonzero;stroke:none" id="path298"/>
      <path d="m 119.852,530.574 c 7.593,0 13.742,6.149 13.742,13.739 0,7.578 -6.149,13.73 -13.742,13.73 -7.586,0 -13.735,-6.152 -13.735,-13.73 0,-7.59 6.149,-13.739 13.735,-13.739" style="fill:#6c97d4;fill-opacity:1;fill-rule:nonzero;stroke:none" id="path300"/>
      <path d="m 155.223,530.574 c 7.593,0 13.742,6.149 13.742,13.739 0,7.578 -6.149,13.73 -13.742,13.73 -7.586,0 -13.735,-6.152 -13.735,-13.73 0,-7.59 6.149,-13.739 13.735,-13.739" style="fill:#6c97d4;fill-opacity:1;fill-rule:nonzero;stroke:none" id="path302"/>
      <path d="m 190.602,530.574 c 7.586,0 13.738,6.149 13.738,13.739 0,7.578 -6.152,13.73 -13.738,13.73 -7.594,0 -13.743,-6.152 -13.743,-13.73 0,-7.59 6.149,-13.739 13.743,-13.739" style="fill:#6c97d4;fill-opacity:1;fill-rule:nonzero;stroke:none" id="path304"/>
      <path d="m 225.973,530.574 c 7.586,0 13.738,6.149 13.738,13.739 0,7.578 -6.152,13.73 -13.738,13.73 -7.594,0 -13.743,-6.152 -13.743,-13.73 0,-7.59 6.149,-13.739 13.743,-13.739" style="fill:#6c97d4;fill-opacity:1;fill-rule:nonzero;stroke:none" id="path306"/>
      <path d="m 261.344,530.574 c 7.586,0 13.738,6.149 13.738,13.739 0,7.578 -6.152,13.73 -13.738,13.73 -7.594,0 -13.742,-6.152 -13.742,-13.73 0,-7.59 6.148,-13.739 13.742,-13.739" style="fill:#6c97d4;fill-opacity:1;fill-rule:nonzero;stroke:none" id="path308"/>
      <path d="m 296.715,530.574 c 7.586,0 13.738,6.149 13.738,13.739 0,7.578 -6.152,13.73 -13.738,13.73 -7.594,0 -13.742,-6.152 -13.742,-13.73 0,-7.59 6.148,-13.739 13.742,-13.739" style="fill:#6c97d4;fill-opacity:1;fill-rule:nonzero;stroke:none" id="path310"/>
      <path d="m 332.086,530.574 c 7.586,0 13.738,6.149 13.738,13.739 0,7.578 -6.152,13.73 -13.738,13.73 -7.594,0 -13.742,-6.152 -13.742,-13.73 0,-7.59 6.148,-13.739 13.742,-13.739" style="fill:#6c97d4;fill-opacity:1;fill-rule:nonzero;stroke:none" id="path312"/>
      <path d="m 367.453,530.574 c 7.59,0 13.742,6.149 13.742,13.739 0,7.578 -6.152,13.73 -13.742,13.73 -7.586,0 -13.738,-6.152 -13.738,-13.73 0,-7.59 6.152,-13.739 13.738,-13.739" style="fill:#6c97d4;fill-opacity:1;fill-rule:nonzero;stroke:none" id="path314"/>
      <path d="m 402.824,530.574 c 7.59,0 13.742,6.149 13.742,13.739 0,7.578 -6.152,13.73 -13.742,13.73 -7.586,0 -13.738,-6.152 -13.738,-13.73 0,-7.59 6.152,-13.739 13.738,-13.739" style="fill:#6c97d4;fill-opacity:1;fill-rule:nonzero;stroke:none" id="path316"/>
      <path d="m 438.195,530.574 c 7.594,0 13.743,6.149 13.743,13.739 0,7.578 -6.149,13.73 -13.743,13.73 -7.586,0 -13.738,-6.152 -13.738,-13.73 0,-7.59 6.152,-13.739 13.738,-13.739" style="fill:#6c97d4;fill-opacity:1;fill-rule:nonzero;stroke:none" id="path318"/>
      <path d="m 473.566,530.574 c 7.594,0 13.743,6.149 13.743,13.739 0,7.578 -6.149,13.73 -13.743,13.73 -7.586,0 -13.738,-6.152 -13.738,-13.73 0,-7.59 6.152,-13.739 13.738,-13.739" style="fill:#6c97d4;fill-opacity:1;fill-rule:nonzero;stroke:none" id="path320"/>
      <path d="m 508.941,530.574 c 7.59,0 13.739,6.149 13.739,13.739 0,7.578 -6.149,13.73 -13.739,13.73 -7.589,0 -13.742,-6.152 -13.742,-13.73 0,-7.59 6.153,-13.739 13.742,-13.739" style="fill:#6c97d4;fill-opacity:1;fill-rule:nonzero;stroke:none" id="path322"/>
      <path d="m 544.313,530.574 c 7.589,0 13.738,6.149 13.738,13.739 0,7.578 -6.149,13.73 -13.738,13.73 -7.59,0 -13.743,-6.152 -13.743,-13.73 0,-7.59 6.153,-13.739 13.743,-13.739" style="fill:#6c97d4;fill-opacity:1;fill-rule:nonzero;stroke:none" id="path324"/>
      <path d="m 579.684,530.574 c 7.589,0 13.738,6.149 13.738,13.739 0,7.578 -6.149,13.73 -13.738,13.73 -7.59,0 -13.743,-6.152 -13.743,-13.73 0,-7.59 6.153,-13.739 13.743,-13.739" style="fill:#6c97d4;fill-opacity:1;fill-rule:nonzero;stroke:none" id="path326"/>
      <path d="m 615.055,530.574 c 7.59,0 13.738,6.149 13.738,13.739 0,7.578 -6.148,13.73 -13.738,13.73 -7.59,0 -13.742,-6.152 -13.742,-13.73 0,-7.59 6.152,-13.739 13.742,-13.739" style="fill:#6c97d4;fill-opacity:1;fill-rule:nonzero;stroke:none" id="path328"/>
      <path d="m 650.426,530.574 c 7.59,0 13.738,6.149 13.738,13.739 0,7.578 -6.148,13.73 -13.738,13.73 -7.59,0 -13.742,-6.152 -13.742,-13.73 0,-7.59 6.152,-13.739 13.742,-13.739" style="fill:#6c97d4;fill-opacity:1;fill-rule:nonzero;stroke:none" id="path330"/>
      <path d="m 13.7383,495.203 c 7.5937,0 13.7422,6.149 13.7422,13.735 0,7.582 -6.1485,13.73 -13.7422,13.73 C 6.15234,522.668 0,516.52 0,508.938 0,501.352 6.15234,495.203 13.7383,495.203" style="fill:#6c97d4;fill-opacity:1;fill-rule:nonzero;stroke:none" id="path332"/>
      <path d="m 49.1094,495.203 c 7.5937,0 13.7422,6.149 13.7422,13.735 0,7.582 -6.1485,13.73 -13.7422,13.73 -7.586,0 -13.7383,-6.148 -13.7383,-13.73 0,-7.586 6.1523,-13.735 13.7383,-13.735" style="fill:#6c97d4;fill-opacity:1;fill-rule:nonzero;stroke:none" id="path334"/>
      <path d="m 84.4805,495.203 c 7.5937,0 13.7422,6.149 13.7422,13.735 0,7.582 -6.1485,13.73 -13.7422,13.73 -7.586,0 -13.7383,-6.148 -13.7383,-13.73 0,-7.586 6.1523,-13.735 13.7383,-13.735" style="fill:#6c97d4;fill-opacity:1;fill-rule:nonzero;stroke:none" id="path336"/>
      <path d="m 119.852,495.203 c 7.593,0 13.742,6.149 13.742,13.735 0,7.582 -6.149,13.73 -13.742,13.73 -7.586,0 -13.735,-6.148 -13.735,-13.73 0,-7.586 6.149,-13.735 13.735,-13.735" style="fill:#6c97d4;fill-opacity:1;fill-rule:nonzero;stroke:none" id="path338"/>
      <path d="m 155.223,495.203 c 7.593,0 13.742,6.149 13.742,13.735 0,7.582 -6.149,13.73 -13.742,13.73 -7.586,0 -13.735,-6.148 -13.735,-13.73 0,-7.586 6.149,-13.735 13.735,-13.735" style="fill:#6c97d4;fill-opacity:1;fill-rule:nonzero;stroke:none" id="path340"/>
      <path d="m 190.602,495.203 c 7.586,0 13.738,6.149 13.738,13.735 0,7.582 -6.152,13.73 -13.738,13.73 -7.594,0 -13.743,-6.148 -13.743,-13.73 0,-7.586 6.149,-13.735 13.743,-13.735" style="fill:#6c97d4;fill-opacity:1;fill-rule:nonzero;stroke:none" id="path342"/>
      <path d="m 225.973,495.203 c 7.586,0 13.738,6.149 13.738,13.735 0,7.582 -6.152,13.73 -13.738,13.73 -7.594,0 -13.743,-6.148 -13.743,-13.73 0,-7.586 6.149,-13.735 13.743,-13.735" style="fill:#6c97d4;fill-opacity:1;fill-rule:nonzero;stroke:none" id="path344"/>
      <path d="m 261.344,495.203 c 7.586,0 13.738,6.149 13.738,13.735 0,7.582 -6.152,13.73 -13.738,13.73 -7.594,0 -13.742,-6.148 -13.742,-13.73 0,-7.586 6.148,-13.735 13.742,-13.735" style="fill:#6c97d4;fill-opacity:1;fill-rule:nonzero;stroke:none" id="path346"/>
      <path d="m 296.715,495.203 c 7.586,0 13.738,6.149 13.738,13.735 0,7.582 -6.152,13.73 -13.738,13.73 -7.594,0 -13.742,-6.148 -13.742,-13.73 0,-7.586 6.148,-13.735 13.742,-13.735" style="fill:#6c97d4;fill-opacity:1;fill-rule:nonzero;stroke:none" id="path348"/>
      <path d="m 332.086,495.203 c 7.586,0 13.738,6.149 13.738,13.735 0,7.582 -6.152,13.73 -13.738,13.73 -7.594,0 -13.742,-6.148 -13.742,-13.73 0,-7.586 6.148,-13.735 13.742,-13.735" style="fill:#6c97d4;fill-opacity:1;fill-rule:nonzero;stroke:none" id="path350"/>
      <path d="m 367.453,495.203 c 7.59,0 13.742,6.149 13.742,13.735 0,7.582 -6.152,13.73 -13.742,13.73 -7.586,0 -13.738,-6.148 -13.738,-13.73 0,-7.586 6.152,-13.735 13.738,-13.735" style="fill:#6c97d4;fill-opacity:1;fill-rule:nonzero;stroke:none" id="path352"/>
      <path d="m 402.824,495.203 c 7.59,0 13.742,6.149 13.742,13.735 0,7.582 -6.152,13.73 -13.742,13.73 -7.586,0 -13.738,-6.148 -13.738,-13.73 0,-7.586 6.152,-13.735 13.738,-13.735" style="fill:#6c97d4;fill-opacity:1;fill-rule:nonzero;stroke:none" id="path354"/>
      <path d="m 438.195,495.203 c 7.594,0 13.743,6.149 13.743,13.735 0,7.582 -6.149,13.73 -13.743,13.73 -7.586,0 -13.738,-6.148 -13.738,-13.73 0,-7.586 6.152,-13.735 13.738,-13.735" style="fill:#6c97d4;fill-opacity:1;fill-rule:nonzero;stroke:none" id="path356"/>
      <path d="m 473.566,495.203 c 7.594,0 13.743,6.149 13.743,13.735 0,7.582 -6.149,13.73 -13.743,13.73 -7.586,0 -13.738,-6.148 -13.738,-13.73 0,-7.586 6.152,-13.735 13.738,-13.735" style="fill:#6c97d4;fill-opacity:1;fill-rule:nonzero;stroke:none" id="path358"/>
      <path d="m 508.941,495.203 c 7.59,0 13.739,6.149 13.739,13.735 0,7.582 -6.149,13.73 -13.739,13.73 -7.589,0 -13.742,-6.148 -13.742,-13.73 0,-7.586 6.153,-13.735 13.742,-13.735" style="fill:#6c97d4;fill-opacity:1;fill-rule:nonzero;stroke:none" id="path360"/>
      <path d="m 544.313,495.203 c 7.589,0 13.738,6.149 13.738,13.735 0,7.582 -6.149,13.73 -13.738,13.73 -7.59,0 -13.743,-6.148 -13.743,-13.73 0,-7.586 6.153,-13.735 13.743,-13.735" style="fill:#6c97d4;fill-opacity:1;fill-rule:nonzero;stroke:none" id="path362"/>
      <path d="m 579.684,495.203 c 7.589,0 13.738,6.149 13.738,13.735 0,7.582 -6.149,13.73 -13.738,13.73 -7.59,0 -13.743,-6.148 -13.743,-13.73 0,-7.586 6.153,-13.735 13.743,-13.735" style="fill:#6c97d4;fill-opacity:1;fill-rule:nonzero;stroke:none" id="path364"/>
      <path d="m 615.055,495.203 c 7.59,0 13.738,6.149 13.738,13.735 0,7.582 -6.148,13.73 -13.738,13.73 -7.59,0 -13.742,-6.148 -13.742,-13.73 0,-7.586 6.152,-13.735 13.742,-13.735" style="fill:#6c97d4;fill-opacity:1;fill-rule:nonzero;stroke:none" id="path366"/>
      <path d="m 650.426,495.203 c 7.59,0 13.738,6.149 13.738,13.735 0,7.582 -6.148,13.73 -13.738,13.73 -7.59,0 -13.742,-6.148 -13.742,-13.73 0,-7.586 6.152,-13.735 13.742,-13.735" style="fill:#6c97d4;fill-opacity:1;fill-rule:nonzero;stroke:none" id="path368"/>
      <path d="m 685.801,495.203 c 7.586,0 13.738,6.149 13.738,13.735 0,7.582 -6.152,13.73 -13.738,13.73 -7.594,0 -13.742,-6.148 -13.742,-13.73 0,-7.586 6.148,-13.735 13.742,-13.735" style="fill:#6c97d4;fill-opacity:1;fill-rule:nonzero;stroke:none" id="path370"/>
      <path d="m 13.7383,459.832 c 7.5937,0 13.7422,6.152 13.7422,13.738 0,7.578 -6.1485,13.727 -13.7422,13.727 C 6.15234,487.297 0,481.148 0,473.57 0,465.984 6.15234,459.832 13.7383,459.832" style="fill:#6c97d4;fill-opacity:1;fill-rule:nonzero;stroke:none" id="path372"/>
      <path d="m 49.1094,459.832 c 7.5937,0 13.7422,6.152 13.7422,13.738 0,7.578 -6.1485,13.727 -13.7422,13.727 -7.586,0 -13.7383,-6.149 -13.7383,-13.727 0,-7.586 6.1523,-13.738 13.7383,-13.738" style="fill:#6c97d4;fill-opacity:1;fill-rule:nonzero;stroke:none" id="path374"/>
      <path d="m 84.4805,459.832 c 7.5937,0 13.7422,6.152 13.7422,13.738 0,7.578 -6.1485,13.727 -13.7422,13.727 -7.586,0 -13.7383,-6.149 -13.7383,-13.727 0,-7.586 6.1523,-13.738 13.7383,-13.738" style="fill:#6c97d4;fill-opacity:1;fill-rule:nonzero;stroke:none" id="path376"/>
      <path d="m 119.852,459.832 c 7.593,0 13.742,6.152 13.742,13.738 0,7.578 -6.149,13.727 -13.742,13.727 -7.586,0 -13.735,-6.149 -13.735,-13.727 0,-7.586 6.149,-13.738 13.735,-13.738" style="fill:#6c97d4;fill-opacity:1;fill-rule:nonzero;stroke:none" id="path378"/>
      <path d="m 155.223,459.832 c 7.593,0 13.742,6.152 13.742,13.738 0,7.578 -6.149,13.727 -13.742,13.727 -7.586,0 -13.735,-6.149 -13.735,-13.727 0,-7.586 6.149,-13.738 13.735,-13.738" style="fill:#6c97d4;fill-opacity:1;fill-rule:nonzero;stroke:none" id="path380"/>
      <path d="m 190.602,459.832 c 7.586,0 13.738,6.152 13.738,13.738 0,7.578 -6.152,13.727 -13.738,13.727 -7.594,0 -13.743,-6.149 -13.743,-13.727 0,-7.586 6.149,-13.738 13.743,-13.738" style="fill:#6c97d4;fill-opacity:1;fill-rule:nonzero;stroke:none" id="path382"/>
      <path d="m 225.973,459.832 c 7.586,0 13.738,6.152 13.738,13.738 0,7.578 -6.152,13.727 -13.738,13.727 -7.594,0 -13.743,-6.149 -13.743,-13.727 0,-7.586 6.149,-13.738 13.743,-13.738" style="fill:#6c97d4;fill-opacity:1;fill-rule:nonzero;stroke:none" id="path384"/>
      <path d="m 261.344,459.832 c 7.586,0 13.738,6.152 13.738,13.738 0,7.578 -6.152,13.727 -13.738,13.727 -7.594,0 -13.742,-6.149 -13.742,-13.727 0,-7.586 6.148,-13.738 13.742,-13.738" style="fill:#6c97d4;fill-opacity:1;fill-rule:nonzero;stroke:none" id="path386"/>
      <path d="m 296.715,459.832 c 7.586,0 13.738,6.152 13.738,13.738 0,7.578 -6.152,13.727 -13.738,13.727 -7.594,0 -13.742,-6.149 -13.742,-13.727 0,-7.586 6.148,-13.738 13.742,-13.738" style="fill:#6c97d4;fill-opacity:1;fill-rule:nonzero;stroke:none" id="path388"/>
      <path d="m 332.086,459.832 c 7.586,0 13.738,6.152 13.738,13.738 0,7.578 -6.152,13.727 -13.738,13.727 -7.594,0 -13.742,-6.149 -13.742,-13.727 0,-7.586 6.148,-13.738 13.742,-13.738" style="fill:#6c97d4;fill-opacity:1;fill-rule:nonzero;stroke:none" id="path390"/>
      <path d="m 367.453,459.832 c 7.59,0 13.742,6.152 13.742,13.738 0,7.578 -6.152,13.727 -13.742,13.727 -7.586,0 -13.738,-6.149 -13.738,-13.727 0,-7.586 6.152,-13.738 13.738,-13.738" style="fill:#6c97d4;fill-opacity:1;fill-rule:nonzero;stroke:none" id="path392"/>
      <path d="m 402.824,459.832 c 7.59,0 13.742,6.152 13.742,13.738 0,7.578 -6.152,13.727 -13.742,13.727 -7.586,0 -13.738,-6.149 -13.738,-13.727 0,-7.586 6.152,-13.738 13.738,-13.738" style="fill:#6c97d4;fill-opacity:1;fill-rule:nonzero;stroke:none" id="path394"/>
      <path d="m 438.195,459.832 c 7.594,0 13.743,6.152 13.743,13.738 0,7.578 -6.149,13.727 -13.743,13.727 -7.586,0 -13.738,-6.149 -13.738,-13.727 0,-7.586 6.152,-13.738 13.738,-13.738" style="fill:#6c97d4;fill-opacity:1;fill-rule:nonzero;stroke:none" id="path396"/>
      <path d="m 473.566,459.832 c 7.594,0 13.743,6.152 13.743,13.738 0,7.578 -6.149,13.727 -13.743,13.727 -7.586,0 -13.738,-6.149 -13.738,-13.727 0,-7.586 6.152,-13.738 13.738,-13.738" style="fill:#6c97d4;fill-opacity:1;fill-rule:nonzero;stroke:none" id="path398"/>
      <path d="m 508.941,459.832 c 7.59,0 13.739,6.152 13.739,13.738 0,7.578 -6.149,13.727 -13.739,13.727 -7.589,0 -13.742,-6.149 -13.742,-13.727 0,-7.586 6.153,-13.738 13.742,-13.738" style="fill:#6c97d4;fill-opacity:1;fill-rule:nonzero;stroke:none" id="path400"/>
      <path d="m 544.313,459.832 c 7.589,0 13.738,6.152 13.738,13.738 0,7.578 -6.149,13.727 -13.738,13.727 -7.59,0 -13.743,-6.149 -13.743,-13.727 0,-7.586 6.153,-13.738 13.743,-13.738" style="fill:#6c97d4;fill-opacity:1;fill-rule:nonzero;stroke:none" id="path402"/>
      <path d="m 579.684,459.832 c 7.589,0 13.738,6.152 13.738,13.738 0,7.578 -6.149,13.727 -13.738,13.727 -7.59,0 -13.743,-6.149 -13.743,-13.727 0,-7.586 6.153,-13.738 13.743,-13.738" style="fill:#6c97d4;fill-opacity:1;fill-rule:nonzero;stroke:none" id="path404"/>
      <path d="m 615.055,459.832 c 7.59,0 13.738,6.152 13.738,13.738 0,7.578 -6.148,13.727 -13.738,13.727 -7.59,0 -13.742,-6.149 -13.742,-13.727 0,-7.586 6.152,-13.738 13.742,-13.738" style="fill:#182455;fill-opacity:1;fill-rule:nonzero;stroke:none" id="path406"/>
      <path d="m 650.426,459.832 c 7.59,0 13.738,6.152 13.738,13.738 0,7.578 -6.148,13.727 -13.738,13.727 -7.59,0 -13.742,-6.149 -13.742,-13.727 0,-7.586 6.152,-13.738 13.742,-13.738" style="fill:#6c97d4;fill-opacity:1;fill-rule:nonzero;stroke:none" id="path408"/>
      <path d="m 685.801,459.832 c 7.586,0 13.738,6.152 13.738,13.738 0,7.578 -6.152,13.727 -13.738,13.727 -7.594,0 -13.742,-6.149 -13.742,-13.727 0,-7.586 6.148,-13.738 13.742,-13.738" style="fill:#6c97d4;fill-opacity:1;fill-rule:nonzero;stroke:none" id="path410"/>
      <path d="m 13.7383,424.461 c 7.5937,0 13.7422,6.141 13.7422,13.738 0,7.578 -6.1485,13.731 -13.7422,13.731 C 6.15234,451.93 0,445.777 0,438.199 0,430.602 6.15234,424.461 13.7383,424.461" style="fill:#6c97d4;fill-opacity:1;fill-rule:nonzero;stroke:none" id="path412"/>
      <path d="m 49.1094,424.461 c 7.5937,0 13.7422,6.141 13.7422,13.738 0,7.578 -6.1485,13.731 -13.7422,13.731 -7.586,0 -13.7383,-6.153 -13.7383,-13.731 0,-7.597 6.1523,-13.738 13.7383,-13.738" style="fill:#6c97d4;fill-opacity:1;fill-rule:nonzero;stroke:none" id="path414"/>
      <path d="m 84.4805,424.461 c 7.5937,0 13.7422,6.141 13.7422,13.738 0,7.578 -6.1485,13.731 -13.7422,13.731 -7.586,0 -13.7383,-6.153 -13.7383,-13.731 0,-7.597 6.1523,-13.738 13.7383,-13.738" style="fill:#6c97d4;fill-opacity:1;fill-rule:nonzero;stroke:none" id="path416"/>
      <path d="m 119.852,424.461 c 7.593,0 13.742,6.141 13.742,13.738 0,7.578 -6.149,13.731 -13.742,13.731 -7.586,0 -13.735,-6.153 -13.735,-13.731 0,-7.597 6.149,-13.738 13.735,-13.738" style="fill:#6c97d4;fill-opacity:1;fill-rule:nonzero;stroke:none" id="path418"/>
      <path d="m 155.223,424.461 c 7.593,0 13.742,6.141 13.742,13.738 0,7.578 -6.149,13.731 -13.742,13.731 -7.586,0 -13.735,-6.153 -13.735,-13.731 0,-7.597 6.149,-13.738 13.735,-13.738" style="fill:#6c97d4;fill-opacity:1;fill-rule:nonzero;stroke:none" id="path420"/>
      <path d="m 190.602,424.461 c 7.586,0 13.738,6.141 13.738,13.738 0,7.578 -6.152,13.731 -13.738,13.731 -7.594,0 -13.743,-6.153 -13.743,-13.731 0,-7.597 6.149,-13.738 13.743,-13.738" style="fill:#182455;fill-opacity:1;fill-rule:nonzero;stroke:none" id="path422"/>
      <path d="m 225.973,424.461 c 7.586,0 13.738,6.141 13.738,13.738 0,7.578 -6.152,13.731 -13.738,13.731 -7.594,0 -13.743,-6.153 -13.743,-13.731 0,-7.597 6.149,-13.738 13.743,-13.738" style="fill:#182455;fill-opacity:1;fill-rule:nonzero;stroke:none" id="path424"/>
      <path d="m 261.344,424.461 c 7.586,0 13.738,6.141 13.738,13.738 0,7.578 -6.152,13.731 -13.738,13.731 -7.594,0 -13.742,-6.153 -13.742,-13.731 0,-7.597 6.148,-13.738 13.742,-13.738" style="fill:#6c97d4;fill-opacity:1;fill-rule:nonzero;stroke:none" id="path426"/>
      <path d="m 296.715,424.461 c 7.586,0 13.738,6.141 13.738,13.738 0,7.578 -6.152,13.731 -13.738,13.731 -7.594,0 -13.742,-6.153 -13.742,-13.731 0,-7.597 6.148,-13.738 13.742,-13.738" style="fill:#6c97d4;fill-opacity:1;fill-rule:nonzero;stroke:none" id="path428"/>
      <path d="m 332.086,424.461 c 7.586,0 13.738,6.141 13.738,13.738 0,7.578 -6.152,13.731 -13.738,13.731 -7.594,0 -13.742,-6.153 -13.742,-13.731 0,-7.597 6.148,-13.738 13.742,-13.738" style="fill:#6c97d4;fill-opacity:1;fill-rule:nonzero;stroke:none" id="path430"/>
      <path d="m 367.453,424.461 c 7.59,0 13.742,6.141 13.742,13.738 0,7.578 -6.152,13.731 -13.742,13.731 -7.586,0 -13.738,-6.153 -13.738,-13.731 0,-7.597 6.152,-13.738 13.738,-13.738" style="fill:#6c97d4;fill-opacity:1;fill-rule:nonzero;stroke:none" id="path432"/>
      <path d="m 402.824,424.461 c 7.59,0 13.742,6.141 13.742,13.738 0,7.578 -6.152,13.731 -13.742,13.731 -7.586,0 -13.738,-6.153 -13.738,-13.731 0,-7.597 6.152,-13.738 13.738,-13.738" style="fill:#6c97d4;fill-opacity:1;fill-rule:nonzero;stroke:none" id="path434"/>
      <path d="m 438.195,424.461 c 7.594,0 13.743,6.141 13.743,13.738 0,7.578 -6.149,13.731 -13.743,13.731 -7.586,0 -13.738,-6.153 -13.738,-13.731 0,-7.597 6.152,-13.738 13.738,-13.738" style="fill:#6c97d4;fill-opacity:1;fill-rule:nonzero;stroke:none" id="path436"/>
      <path d="m 473.566,424.461 c 7.594,0 13.743,6.141 13.743,13.738 0,7.578 -6.149,13.731 -13.743,13.731 -7.586,0 -13.738,-6.153 -13.738,-13.731 0,-7.597 6.152,-13.738 13.738,-13.738" style="fill:#6c97d4;fill-opacity:1;fill-rule:nonzero;stroke:none" id="path438"/>
      <path d="m 508.941,424.461 c 7.59,0 13.739,6.141 13.739,13.738 0,7.578 -6.149,13.731 -13.739,13.731 -7.589,0 -13.742,-6.153 -13.742,-13.731 0,-7.597 6.153,-13.738 13.742,-13.738" style="fill:#6c97d4;fill-opacity:1;fill-rule:nonzero;stroke:none" id="path440"/>
      <path d="m 544.313,424.461 c 7.589,0 13.738,6.141 13.738,13.738 0,7.578 -6.149,13.731 -13.738,13.731 -7.59,0 -13.743,-6.153 -13.743,-13.731 0,-7.597 6.153,-13.738 13.743,-13.738" style="fill:#6c97d4;fill-opacity:1;fill-rule:nonzero;stroke:none" id="path442"/>
      <path d="m 579.684,424.461 c 7.589,0 13.738,6.141 13.738,13.738 0,7.578 -6.149,13.731 -13.738,13.731 -7.59,0 -13.743,-6.153 -13.743,-13.731 0,-7.597 6.153,-13.738 13.743,-13.738" style="fill:#6c97d4;fill-opacity:1;fill-rule:nonzero;stroke:none" id="path444"/>
      <path d="m 615.055,424.461 c 7.59,0 13.738,6.141 13.738,13.738 0,7.578 -6.148,13.731 -13.738,13.731 -7.59,0 -13.742,-6.153 -13.742,-13.731 0,-7.597 6.152,-13.738 13.742,-13.738" style="fill:#6c97d4;fill-opacity:1;fill-rule:nonzero;stroke:none" id="path446"/>
      <path d="m 650.426,424.461 c 7.59,0 13.738,6.141 13.738,13.738 0,7.578 -6.148,13.731 -13.738,13.731 -7.59,0 -13.742,-6.153 -13.742,-13.731 0,-7.597 6.152,-13.738 13.742,-13.738" style="fill:#6c97d4;fill-opacity:1;fill-rule:nonzero;stroke:none" id="path448"/>
      <path d="m 685.801,424.461 c 7.586,0 13.738,6.141 13.738,13.738 0,7.578 -6.152,13.731 -13.738,13.731 -7.594,0 -13.742,-6.153 -13.742,-13.731 0,-7.597 6.148,-13.738 13.742,-13.738" style="fill:#6c97d4;fill-opacity:1;fill-rule:nonzero;stroke:none" id="path450"/>
      <path d="m 13.7383,389.09 c 7.5937,0 13.7422,6.14 13.7422,13.738 0,7.578 -6.1485,13.731 -13.7422,13.731 C 6.15234,416.559 0,410.406 0,402.828 0,395.23 6.15234,389.09 13.7383,389.09" style="fill:#6c97d4;fill-opacity:1;fill-rule:nonzero;stroke:none" id="path452"/>
      <path d="m 49.1094,389.09 c 7.5937,0 13.7422,6.14 13.7422,13.738 0,7.578 -6.1485,13.731 -13.7422,13.731 -7.586,0 -13.7383,-6.153 -13.7383,-13.731 0,-7.598 6.1523,-13.738 13.7383,-13.738" style="fill:#6c97d4;fill-opacity:1;fill-rule:nonzero;stroke:none" id="path454"/>
      <path d="m 84.4805,389.09 c 7.5937,0 13.7422,6.14 13.7422,13.738 0,7.578 -6.1485,13.731 -13.7422,13.731 -7.586,0 -13.7383,-6.153 -13.7383,-13.731 0,-7.598 6.1523,-13.738 13.7383,-13.738" style="fill:#6c97d4;fill-opacity:1;fill-rule:nonzero;stroke:none" id="path456"/>
      <path d="m 119.852,389.09 c 7.593,0 13.742,6.14 13.742,13.738 0,7.578 -6.149,13.731 -13.742,13.731 -7.586,0 -13.735,-6.153 -13.735,-13.731 0,-7.598 6.149,-13.738 13.735,-13.738" style="fill:#6c97d4;fill-opacity:1;fill-rule:nonzero;stroke:none" id="path458"/>
      <path d="m 155.223,389.09 c 7.593,0 13.742,6.14 13.742,13.738 0,7.578 -6.149,13.731 -13.742,13.731 -7.586,0 -13.735,-6.153 -13.735,-13.731 0,-7.598 6.149,-13.738 13.735,-13.738" style="fill:#6c97d4;fill-opacity:1;fill-rule:nonzero;stroke:none" id="path460"/>
      <path d="m 190.602,389.09 c 7.586,0 13.738,6.14 13.738,13.738 0,7.578 -6.152,13.731 -13.738,13.731 -7.594,0 -13.743,-6.153 -13.743,-13.731 0,-7.598 6.149,-13.738 13.743,-13.738" style="fill:#6c97d4;fill-opacity:1;fill-rule:nonzero;stroke:none" id="path462"/>
      <path d="m 225.973,389.09 c 7.586,0 13.738,6.14 13.738,13.738 0,7.578 -6.152,13.731 -13.738,13.731 -7.594,0 -13.743,-6.153 -13.743,-13.731 0,-7.598 6.149,-13.738 13.743,-13.738" style="fill:#6c97d4;fill-opacity:1;fill-rule:nonzero;stroke:none" id="path464"/>
      <path d="m 261.344,389.09 c 7.586,0 13.738,6.14 13.738,13.738 0,7.578 -6.152,13.731 -13.738,13.731 -7.594,0 -13.742,-6.153 -13.742,-13.731 0,-7.598 6.148,-13.738 13.742,-13.738" style="fill:#6c97d4;fill-opacity:1;fill-rule:nonzero;stroke:none" id="path466"/>
      <path d="m 296.715,389.09 c 7.586,0 13.738,6.14 13.738,13.738 0,7.578 -6.152,13.731 -13.738,13.731 -7.594,0 -13.742,-6.153 -13.742,-13.731 0,-7.598 6.148,-13.738 13.742,-13.738" style="fill:#6c97d4;fill-opacity:1;fill-rule:nonzero;stroke:none" id="path468"/>
      <path d="m 332.086,389.09 c 7.586,0 13.738,6.14 13.738,13.738 0,7.578 -6.152,13.731 -13.738,13.731 -7.594,0 -13.742,-6.153 -13.742,-13.731 0,-7.598 6.148,-13.738 13.742,-13.738" style="fill:#6c97d4;fill-opacity:1;fill-rule:nonzero;stroke:none" id="path470"/>
      <path d="m 367.453,389.09 c 7.59,0 13.742,6.14 13.742,13.738 0,7.578 -6.152,13.731 -13.742,13.731 -7.586,0 -13.738,-6.153 -13.738,-13.731 0,-7.598 6.152,-13.738 13.738,-13.738" style="fill:#6c97d4;fill-opacity:1;fill-rule:nonzero;stroke:none" id="path472"/>
      <path d="m 402.824,389.09 c 7.59,0 13.742,6.14 13.742,13.738 0,7.578 -6.152,13.731 -13.742,13.731 -7.586,0 -13.738,-6.153 -13.738,-13.731 0,-7.598 6.152,-13.738 13.738,-13.738" style="fill:#6c97d4;fill-opacity:1;fill-rule:nonzero;stroke:none" id="path474"/>
      <path d="m 438.195,389.09 c 7.594,0 13.743,6.14 13.743,13.738 0,7.578 -6.149,13.731 -13.743,13.731 -7.586,0 -13.738,-6.153 -13.738,-13.731 0,-7.598 6.152,-13.738 13.738,-13.738" style="fill:#6c97d4;fill-opacity:1;fill-rule:nonzero;stroke:none" id="path476"/>
      <path d="m 473.566,389.09 c 7.594,0 13.743,6.14 13.743,13.738 0,7.578 -6.149,13.731 -13.743,13.731 -7.586,0 -13.738,-6.153 -13.738,-13.731 0,-7.598 6.152,-13.738 13.738,-13.738" style="fill:#6c97d4;fill-opacity:1;fill-rule:nonzero;stroke:none" id="path478"/>
      <path d="m 508.941,389.09 c 7.59,0 13.739,6.14 13.739,13.738 0,7.578 -6.149,13.731 -13.739,13.731 -7.589,0 -13.742,-6.153 -13.742,-13.731 0,-7.598 6.153,-13.738 13.742,-13.738" style="fill:#6c97d4;fill-opacity:1;fill-rule:nonzero;stroke:none" id="path480"/>
      <path d="m 544.313,389.09 c 7.589,0 13.738,6.14 13.738,13.738 0,7.578 -6.149,13.731 -13.738,13.731 -7.59,0 -13.743,-6.153 -13.743,-13.731 0,-7.598 6.153,-13.738 13.743,-13.738" style="fill:#6c97d4;fill-opacity:1;fill-rule:nonzero;stroke:none" id="path482"/>
      <path d="m 579.684,389.09 c 7.589,0 13.738,6.14 13.738,13.738 0,7.578 -6.149,13.731 -13.738,13.731 -7.59,0 -13.743,-6.153 -13.743,-13.731 0,-7.598 6.153,-13.738 13.743,-13.738" style="fill:#6c97d4;fill-opacity:1;fill-rule:nonzero;stroke:none" id="path484"/>
      <path d="m 13.7383,353.719 c 7.5937,0 13.7422,6.14 13.7422,13.738 0,7.578 -6.1485,13.731 -13.7422,13.731 C 6.15234,381.188 0,375.035 0,367.457 0,359.859 6.15234,353.719 13.7383,353.719" style="fill:#6c97d4;fill-opacity:1;fill-rule:nonzero;stroke:none" id="path486"/>
      <path d="m 49.1094,353.719 c 7.5937,0 13.7422,6.14 13.7422,13.738 0,7.578 -6.1485,13.731 -13.7422,13.731 -7.586,0 -13.7383,-6.153 -13.7383,-13.731 0,-7.598 6.1523,-13.738 13.7383,-13.738" style="fill:#6c97d4;fill-opacity:1;fill-rule:nonzero;stroke:none" id="path488"/>
      <path d="m 84.4805,353.719 c 7.5937,0 13.7422,6.14 13.7422,13.738 0,7.578 -6.1485,13.731 -13.7422,13.731 -7.586,0 -13.7383,-6.153 -13.7383,-13.731 0,-7.598 6.1523,-13.738 13.7383,-13.738" style="fill:#6c97d4;fill-opacity:1;fill-rule:nonzero;stroke:none" id="path490"/>
      <path d="m 119.852,353.719 c 7.593,0 13.742,6.14 13.742,13.738 0,7.578 -6.149,13.731 -13.742,13.731 -7.586,0 -13.735,-6.153 -13.735,-13.731 0,-7.598 6.149,-13.738 13.735,-13.738" style="fill:#6c97d4;fill-opacity:1;fill-rule:nonzero;stroke:none" id="path492"/>
      <path d="m 155.223,353.719 c 7.593,0 13.742,6.14 13.742,13.738 0,7.578 -6.149,13.731 -13.742,13.731 -7.586,0 -13.735,-6.153 -13.735,-13.731 0,-7.598 6.149,-13.738 13.735,-13.738" style="fill:#182455;fill-opacity:1;fill-rule:nonzero;stroke:none" id="path494"/>
      <path d="m 190.602,353.719 c 7.586,0 13.738,6.14 13.738,13.738 0,7.578 -6.152,13.731 -13.738,13.731 -7.594,0 -13.743,-6.153 -13.743,-13.731 0,-7.598 6.149,-13.738 13.743,-13.738" style="fill:#6c97d4;fill-opacity:1;fill-rule:nonzero;stroke:none" id="path496"/>
      <path d="m 225.973,353.719 c 7.586,0 13.738,6.14 13.738,13.738 0,7.578 -6.152,13.731 -13.738,13.731 -7.594,0 -13.743,-6.153 -13.743,-13.731 0,-7.598 6.149,-13.738 13.743,-13.738" style="fill:#6c97d4;fill-opacity:1;fill-rule:nonzero;stroke:none" id="path498"/>
      <path d="m 261.344,353.719 c 7.586,0 13.738,6.14 13.738,13.738 0,7.578 -6.152,13.731 -13.738,13.731 -7.594,0 -13.742,-6.153 -13.742,-13.731 0,-7.598 6.148,-13.738 13.742,-13.738" style="fill:#6c97d4;fill-opacity:1;fill-rule:nonzero;stroke:none" id="path500"/>
      <path d="m 296.715,353.719 c 7.586,0 13.738,6.14 13.738,13.738 0,7.578 -6.152,13.731 -13.738,13.731 -7.594,0 -13.742,-6.153 -13.742,-13.731 0,-7.598 6.148,-13.738 13.742,-13.738" style="fill:#6c97d4;fill-opacity:1;fill-rule:nonzero;stroke:none" id="path502"/>
      <path d="m 332.086,353.719 c 7.586,0 13.738,6.14 13.738,13.738 0,7.578 -6.152,13.731 -13.738,13.731 -7.594,0 -13.742,-6.153 -13.742,-13.731 0,-7.598 6.148,-13.738 13.742,-13.738" style="fill:#6c97d4;fill-opacity:1;fill-rule:nonzero;stroke:none" id="path504"/>
      <path d="m 367.453,353.719 c 7.59,0 13.742,6.14 13.742,13.738 0,7.578 -6.152,13.731 -13.742,13.731 -7.586,0 -13.738,-6.153 -13.738,-13.731 0,-7.598 6.152,-13.738 13.738,-13.738" style="fill:#6c97d4;fill-opacity:1;fill-rule:nonzero;stroke:none" id="path506"/>
      <path d="m 402.824,353.719 c 7.59,0 13.742,6.14 13.742,13.738 0,7.578 -6.152,13.731 -13.742,13.731 -7.586,0 -13.738,-6.153 -13.738,-13.731 0,-7.598 6.152,-13.738 13.738,-13.738" style="fill:#6c97d4;fill-opacity:1;fill-rule:nonzero;stroke:none" id="path508"/>
      <path d="m 438.195,353.719 c 7.594,0 13.743,6.14 13.743,13.738 0,7.578 -6.149,13.731 -13.743,13.731 -7.586,0 -13.738,-6.153 -13.738,-13.731 0,-7.598 6.152,-13.738 13.738,-13.738" style="fill:#6c97d4;fill-opacity:1;fill-rule:nonzero;stroke:none" id="path510"/>
      <path d="m 473.566,353.719 c 7.594,0 13.743,6.14 13.743,13.738 0,7.578 -6.149,13.731 -13.743,13.731 -7.586,0 -13.738,-6.153 -13.738,-13.731 0,-7.598 6.152,-13.738 13.738,-13.738" style="fill:#6c97d4;fill-opacity:1;fill-rule:nonzero;stroke:none" id="path512"/>
      <path d="m 13.7383,318.348 c 7.5937,0 13.7422,6.14 13.7422,13.738 0,7.578 -6.1485,13.73 -13.7422,13.73 C 6.15234,345.816 0,339.664 0,332.086 0,324.488 6.15234,318.348 13.7383,318.348" style="fill:#6c97d4;fill-opacity:1;fill-rule:nonzero;stroke:none" id="path514"/>
      <path d="m 49.1094,318.348 c 7.5937,0 13.7422,6.14 13.7422,13.738 0,7.578 -6.1485,13.73 -13.7422,13.73 -7.586,0 -13.7383,-6.152 -13.7383,-13.73 0,-7.598 6.1523,-13.738 13.7383,-13.738" style="fill:#6c97d4;fill-opacity:1;fill-rule:nonzero;stroke:none" id="path516"/>
      <path d="m 84.4805,318.348 c 7.5937,0 13.7422,6.14 13.7422,13.738 0,7.578 -6.1485,13.73 -13.7422,13.73 -7.586,0 -13.7383,-6.152 -13.7383,-13.73 0,-7.598 6.1523,-13.738 13.7383,-13.738" style="fill:#6c97d4;fill-opacity:1;fill-rule:nonzero;stroke:none" id="path518"/>
      <path d="m 119.852,318.348 c 7.593,0 13.742,6.14 13.742,13.738 0,7.578 -6.149,13.73 -13.742,13.73 -7.586,0 -13.735,-6.152 -13.735,-13.73 0,-7.598 6.149,-13.738 13.735,-13.738" style="fill:#182455;fill-opacity:1;fill-rule:nonzero;stroke:none" id="path520"/>
      <path d="m 155.223,318.348 c 7.593,0 13.742,6.14 13.742,13.738 0,7.578 -6.149,13.73 -13.742,13.73 -7.586,0 -13.735,-6.152 -13.735,-13.73 0,-7.598 6.149,-13.738 13.735,-13.738" style="fill:#6c97d4;fill-opacity:1;fill-rule:nonzero;stroke:none" id="path522"/>
      <path d="m 190.602,318.348 c 7.586,0 13.738,6.14 13.738,13.738 0,7.578 -6.152,13.73 -13.738,13.73 -7.594,0 -13.743,-6.152 -13.743,-13.73 0,-7.598 6.149,-13.738 13.743,-13.738" style="fill:#6c97d4;fill-opacity:1;fill-rule:nonzero;stroke:none" id="path524"/>
      <path d="m 225.973,318.348 c 7.586,0 13.738,6.14 13.738,13.738 0,7.578 -6.152,13.73 -13.738,13.73 -7.594,0 -13.743,-6.152 -13.743,-13.73 0,-7.598 6.149,-13.738 13.743,-13.738" style="fill:#6c97d4;fill-opacity:1;fill-rule:nonzero;stroke:none" id="path526"/>
      <path d="m 261.344,318.348 c 7.586,0 13.738,6.14 13.738,13.738 0,7.578 -6.152,13.73 -13.738,13.73 -7.594,0 -13.742,-6.152 -13.742,-13.73 0,-7.598 6.148,-13.738 13.742,-13.738" style="fill:#6c97d4;fill-opacity:1;fill-rule:nonzero;stroke:none" id="path528"/>
      <path d="m 296.715,318.348 c 7.586,0 13.738,6.14 13.738,13.738 0,7.578 -6.152,13.73 -13.738,13.73 -7.594,0 -13.742,-6.152 -13.742,-13.73 0,-7.598 6.148,-13.738 13.742,-13.738" style="fill:#6c97d4;fill-opacity:1;fill-rule:nonzero;stroke:none" id="path530"/>
      <path d="m 332.086,318.348 c 7.586,0 13.738,6.14 13.738,13.738 0,7.578 -6.152,13.73 -13.738,13.73 -7.594,0 -13.742,-6.152 -13.742,-13.73 0,-7.598 6.148,-13.738 13.742,-13.738" style="fill:#6c97d4;fill-opacity:1;fill-rule:nonzero;stroke:none" id="path532"/>
      <path d="m 367.453,318.348 c 7.59,0 13.742,6.14 13.742,13.738 0,7.578 -6.152,13.73 -13.742,13.73 -7.586,0 -13.738,-6.152 -13.738,-13.73 0,-7.598 6.152,-13.738 13.738,-13.738" style="fill:#6c97d4;fill-opacity:1;fill-rule:nonzero;stroke:none" id="path534"/>
      <path d="m 402.824,318.348 c 7.59,0 13.742,6.14 13.742,13.738 0,7.578 -6.152,13.73 -13.742,13.73 -7.586,0 -13.738,-6.152 -13.738,-13.73 0,-7.598 6.152,-13.738 13.738,-13.738" style="fill:#6c97d4;fill-opacity:1;fill-rule:nonzero;stroke:none" id="path536"/>
      <path d="m 438.195,318.348 c 7.594,0 13.743,6.14 13.743,13.738 0,7.578 -6.149,13.73 -13.743,13.73 -7.586,0 -13.738,-6.152 -13.738,-13.73 0,-7.598 6.152,-13.738 13.738,-13.738" style="fill:#6c97d4;fill-opacity:1;fill-rule:nonzero;stroke:none" id="path538"/>
      <path d="m 473.566,318.348 c 7.594,0 13.743,6.14 13.743,13.738 0,7.578 -6.149,13.73 -13.743,13.73 -7.586,0 -13.738,-6.152 -13.738,-13.73 0,-7.598 6.152,-13.738 13.738,-13.738" style="fill:#6c97d4;fill-opacity:1;fill-rule:nonzero;stroke:none" id="path540"/>
      <path d="m 13.7383,282.977 c 7.5937,0 13.7422,6.14 13.7422,13.73 0,7.586 -6.1485,13.731 -13.7422,13.731 C 6.15234,310.438 0,304.293 0,296.707 c 0,-7.59 6.15234,-13.73 13.7383,-13.73" style="fill:#6c97d4;fill-opacity:1;fill-rule:nonzero;stroke:none" id="path542"/>
      <path d="m 49.1094,282.977 c 7.5937,0 13.7422,6.14 13.7422,13.73 0,7.586 -6.1485,13.731 -13.7422,13.731 -7.586,0 -13.7383,-6.145 -13.7383,-13.731 0,-7.59 6.1523,-13.73 13.7383,-13.73" style="fill:#6c97d4;fill-opacity:1;fill-rule:nonzero;stroke:none" id="path544"/>
      <path d="m 84.4805,282.977 c 7.5937,0 13.7422,6.14 13.7422,13.73 0,7.586 -6.1485,13.731 -13.7422,13.731 -7.586,0 -13.7383,-6.145 -13.7383,-13.731 0,-7.59 6.1523,-13.73 13.7383,-13.73" style="fill:#6c97d4;fill-opacity:1;fill-rule:nonzero;stroke:none" id="path546"/>
      <path d="m 119.852,282.977 c 7.593,0 13.742,6.14 13.742,13.73 0,7.586 -6.149,13.731 -13.742,13.731 -7.586,0 -13.735,-6.145 -13.735,-13.731 0,-7.59 6.149,-13.73 13.735,-13.73" style="fill:#6c97d4;fill-opacity:1;fill-rule:nonzero;stroke:none" id="path548"/>
      <path d="m 155.223,282.977 c 7.593,0 13.742,6.14 13.742,13.73 0,7.586 -6.149,13.731 -13.742,13.731 -7.586,0 -13.735,-6.145 -13.735,-13.731 0,-7.59 6.149,-13.73 13.735,-13.73" style="fill:#6c97d4;fill-opacity:1;fill-rule:nonzero;stroke:none" id="path550"/>
      <path d="m 190.602,282.977 c 7.586,0 13.738,6.14 13.738,13.73 0,7.586 -6.152,13.731 -13.738,13.731 -7.594,0 -13.743,-6.145 -13.743,-13.731 0,-7.59 6.149,-13.73 13.743,-13.73" style="fill:#6c97d4;fill-opacity:1;fill-rule:nonzero;stroke:none" id="path552"/>
      <path d="m 225.973,282.977 c 7.586,0 13.738,6.14 13.738,13.73 0,7.586 -6.152,13.731 -13.738,13.731 -7.594,0 -13.743,-6.145 -13.743,-13.731 0,-7.59 6.149,-13.73 13.743,-13.73" style="fill:#6c97d4;fill-opacity:1;fill-rule:nonzero;stroke:none" id="path554"/>
      <path d="m 261.344,282.977 c 7.586,0 13.738,6.14 13.738,13.73 0,7.586 -6.152,13.731 -13.738,13.731 -7.594,0 -13.742,-6.145 -13.742,-13.731 0,-7.59 6.148,-13.73 13.742,-13.73" style="fill:#6c97d4;fill-opacity:1;fill-rule:nonzero;stroke:none" id="path556"/>
      <path d="m 296.715,282.977 c 7.586,0 13.738,6.14 13.738,13.73 0,7.586 -6.152,13.731 -13.738,13.731 -7.594,0 -13.742,-6.145 -13.742,-13.731 0,-7.59 6.148,-13.73 13.742,-13.73" style="fill:#6c97d4;fill-opacity:1;fill-rule:nonzero;stroke:none" id="path558"/>
      <path d="m 332.086,282.977 c 7.586,0 13.738,6.14 13.738,13.73 0,7.586 -6.152,13.731 -13.738,13.731 -7.594,0 -13.742,-6.145 -13.742,-13.731 0,-7.59 6.148,-13.73 13.742,-13.73" style="fill:#6c97d4;fill-opacity:1;fill-rule:nonzero;stroke:none" id="path560"/>
      <path d="m 367.453,282.977 c 7.59,0 13.742,6.14 13.742,13.73 0,7.586 -6.152,13.731 -13.742,13.731 -7.586,0 -13.738,-6.145 -13.738,-13.731 0,-7.59 6.152,-13.73 13.738,-13.73" style="fill:#6c97d4;fill-opacity:1;fill-rule:nonzero;stroke:none" id="path562"/>
      <path d="m 402.824,282.977 c 7.59,0 13.742,6.14 13.742,13.73 0,7.586 -6.152,13.731 -13.742,13.731 -7.586,0 -13.738,-6.145 -13.738,-13.731 0,-7.59 6.152,-13.73 13.738,-13.73" style="fill:#182455;fill-opacity:1;fill-rule:nonzero;stroke:none" id="path564"/>
      <path d="m 438.195,282.977 c 7.594,0 13.743,6.14 13.743,13.73 0,7.586 -6.149,13.731 -13.743,13.731 -7.586,0 -13.738,-6.145 -13.738,-13.731 0,-7.59 6.152,-13.73 13.738,-13.73" style="fill:#6c97d4;fill-opacity:1;fill-rule:nonzero;stroke:none" id="path566"/>
      <path d="m 473.566,282.977 c 7.594,0 13.743,6.14 13.743,13.73 0,7.586 -6.149,13.731 -13.743,13.731 -7.586,0 -13.738,-6.145 -13.738,-13.731 0,-7.59 6.152,-13.73 13.738,-13.73" style="fill:#6c97d4;fill-opacity:1;fill-rule:nonzero;stroke:none" id="path568"/>
      <path d="m 49.1094,247.605 c 7.5937,0 13.7422,6.141 13.7422,13.731 0,7.586 -6.1485,13.73 -13.7422,13.73 -7.586,0 -13.7383,-6.144 -13.7383,-13.73 0,-7.59 6.1523,-13.731 13.7383,-13.731" style="fill:#6c97d4;fill-opacity:1;fill-rule:nonzero;stroke:none" id="path570"/>
      <path d="m 84.4805,247.605 c 7.5937,0 13.7422,6.141 13.7422,13.731 0,7.586 -6.1485,13.73 -13.7422,13.73 -7.586,0 -13.7383,-6.144 -13.7383,-13.73 0,-7.59 6.1523,-13.731 13.7383,-13.731" style="fill:#6c97d4;fill-opacity:1;fill-rule:nonzero;stroke:none" id="path572"/>
      <path d="m 119.852,247.605 c 7.593,0 13.742,6.141 13.742,13.731 0,7.586 -6.149,13.73 -13.742,13.73 -7.586,0 -13.735,-6.144 -13.735,-13.73 0,-7.59 6.149,-13.731 13.735,-13.731" style="fill:#6c97d4;fill-opacity:1;fill-rule:nonzero;stroke:none" id="path574"/>
      <path d="m 155.223,247.605 c 7.593,0 13.742,6.141 13.742,13.731 0,7.586 -6.149,13.73 -13.742,13.73 -7.586,0 -13.735,-6.144 -13.735,-13.73 0,-7.59 6.149,-13.731 13.735,-13.731" style="fill:#182455;fill-opacity:1;fill-rule:nonzero;stroke:none" id="path576"/>
      <path d="m 190.602,247.605 c 7.586,0 13.738,6.141 13.738,13.731 0,7.586 -6.152,13.73 -13.738,13.73 -7.594,0 -13.743,-6.144 -13.743,-13.73 0,-7.59 6.149,-13.731 13.743,-13.731" style="fill:#6c97d4;fill-opacity:1;fill-rule:nonzero;stroke:none" id="path578"/>
      <path d="m 225.973,247.605 c 7.586,0 13.738,6.141 13.738,13.731 0,7.586 -6.152,13.73 -13.738,13.73 -7.594,0 -13.743,-6.144 -13.743,-13.73 0,-7.59 6.149,-13.731 13.743,-13.731" style="fill:#6c97d4;fill-opacity:1;fill-rule:nonzero;stroke:none" id="path580"/>
      <path d="m 261.344,247.605 c 7.586,0 13.738,6.141 13.738,13.731 0,7.586 -6.152,13.73 -13.738,13.73 -7.594,0 -13.742,-6.144 -13.742,-13.73 0,-7.59 6.148,-13.731 13.742,-13.731" style="fill:#6c97d4;fill-opacity:1;fill-rule:nonzero;stroke:none" id="path582"/>
      <path d="m 296.715,247.605 c 7.586,0 13.738,6.141 13.738,13.731 0,7.586 -6.152,13.73 -13.738,13.73 -7.594,0 -13.742,-6.144 -13.742,-13.73 0,-7.59 6.148,-13.731 13.742,-13.731" style="fill:#6c97d4;fill-opacity:1;fill-rule:nonzero;stroke:none" id="path584"/>
      <path d="m 332.086,247.605 c 7.586,0 13.738,6.141 13.738,13.731 0,7.586 -6.152,13.73 -13.738,13.73 -7.594,0 -13.742,-6.144 -13.742,-13.73 0,-7.59 6.148,-13.731 13.742,-13.731" style="fill:#6c97d4;fill-opacity:1;fill-rule:nonzero;stroke:none" id="path586"/>
      <path d="m 367.453,247.605 c 7.59,0 13.742,6.141 13.742,13.731 0,7.586 -6.152,13.73 -13.742,13.73 -7.586,0 -13.738,-6.144 -13.738,-13.73 0,-7.59 6.152,-13.731 13.738,-13.731" style="fill:#6c97d4;fill-opacity:1;fill-rule:nonzero;stroke:none" id="path588"/>
      <path d="m 402.824,247.605 c 7.59,0 13.742,6.141 13.742,13.731 0,7.586 -6.152,13.73 -13.742,13.73 -7.586,0 -13.738,-6.144 -13.738,-13.73 0,-7.59 6.152,-13.731 13.738,-13.731" style="fill:#6c97d4;fill-opacity:1;fill-rule:nonzero;stroke:none" id="path590"/>
      <path d="m 438.195,247.605 c 7.594,0 13.743,6.141 13.743,13.731 0,7.586 -6.149,13.73 -13.743,13.73 -7.586,0 -13.738,-6.144 -13.738,-13.73 0,-7.59 6.152,-13.731 13.738,-13.731" style="fill:#6c97d4;fill-opacity:1;fill-rule:nonzero;stroke:none" id="path592"/>
      <path d="m 473.566,247.605 c 7.594,0 13.743,6.141 13.743,13.731 0,7.586 -6.149,13.73 -13.743,13.73 -7.586,0 -13.738,-6.144 -13.738,-13.73 0,-7.59 6.152,-13.731 13.738,-13.731" style="fill:#6c97d4;fill-opacity:1;fill-rule:nonzero;stroke:none" id="path594"/>
      <path d="m 508.941,247.605 c 7.59,0 13.739,6.141 13.739,13.731 0,7.586 -6.149,13.73 -13.739,13.73 -7.589,0 -13.742,-6.144 -13.742,-13.73 0,-7.59 6.153,-13.731 13.742,-13.731" style="fill:#6c97d4;fill-opacity:1;fill-rule:nonzero;stroke:none" id="path596"/>
      <path d="m 119.852,212.234 c 7.593,0 13.742,6.141 13.742,13.739 0,7.578 -6.149,13.722 -13.742,13.722 -7.586,0 -13.735,-6.144 -13.735,-13.722 0,-7.598 6.149,-13.739 13.735,-13.739" style="fill:#6c97d4;fill-opacity:1;fill-rule:nonzero;stroke:none" id="path598"/>
      <path d="m 155.223,212.234 c 7.593,0 13.742,6.141 13.742,13.739 0,7.578 -6.149,13.722 -13.742,13.722 -7.586,0 -13.735,-6.144 -13.735,-13.722 0,-7.598 6.149,-13.739 13.735,-13.739" style="fill:#6c97d4;fill-opacity:1;fill-rule:nonzero;stroke:none" id="path600"/>
      <path d="m 190.602,212.234 c 7.586,0 13.738,6.141 13.738,13.739 0,7.578 -6.152,13.722 -13.738,13.722 -7.594,0 -13.743,-6.144 -13.743,-13.722 0,-7.598 6.149,-13.739 13.743,-13.739" style="fill:#6c97d4;fill-opacity:1;fill-rule:nonzero;stroke:none" id="path602"/>
      <path d="m 225.973,212.234 c 7.586,0 13.738,6.141 13.738,13.739 0,7.578 -6.152,13.722 -13.738,13.722 -7.594,0 -13.743,-6.144 -13.743,-13.722 0,-7.598 6.149,-13.739 13.743,-13.739" style="fill:#6c97d4;fill-opacity:1;fill-rule:nonzero;stroke:none" id="path604"/>
      <path d="m 261.344,212.234 c 7.586,0 13.738,6.141 13.738,13.739 0,7.578 -6.152,13.722 -13.738,13.722 -7.594,0 -13.742,-6.144 -13.742,-13.722 0,-7.598 6.148,-13.739 13.742,-13.739" style="fill:#6c97d4;fill-opacity:1;fill-rule:nonzero;stroke:none" id="path606"/>
      <path d="m 296.715,212.234 c 7.586,0 13.738,6.141 13.738,13.739 0,7.578 -6.152,13.722 -13.738,13.722 -7.594,0 -13.742,-6.144 -13.742,-13.722 0,-7.598 6.148,-13.739 13.742,-13.739" style="fill:#6c97d4;fill-opacity:1;fill-rule:nonzero;stroke:none" id="path608"/>
      <path d="m 332.086,212.234 c 7.586,0 13.738,6.141 13.738,13.739 0,7.578 -6.152,13.722 -13.738,13.722 -7.594,0 -13.742,-6.144 -13.742,-13.722 0,-7.598 6.148,-13.739 13.742,-13.739" style="fill:#6c97d4;fill-opacity:1;fill-rule:nonzero;stroke:none" id="path610"/>
      <path d="m 367.453,212.234 c 7.59,0 13.742,6.141 13.742,13.739 0,7.578 -6.152,13.722 -13.742,13.722 -7.586,0 -13.738,-6.144 -13.738,-13.722 0,-7.598 6.152,-13.739 13.738,-13.739" style="fill:#6c97d4;fill-opacity:1;fill-rule:nonzero;stroke:none" id="path612"/>
      <path d="m 402.824,212.234 c 7.59,0 13.742,6.141 13.742,13.739 0,7.578 -6.152,13.722 -13.742,13.722 -7.586,0 -13.738,-6.144 -13.738,-13.722 0,-7.598 6.152,-13.739 13.738,-13.739" style="fill:#6c97d4;fill-opacity:1;fill-rule:nonzero;stroke:none" id="path614"/>
      <path d="m 438.195,212.234 c 7.594,0 13.743,6.141 13.743,13.739 0,7.578 -6.149,13.722 -13.743,13.722 -7.586,0 -13.738,-6.144 -13.738,-13.722 0,-7.598 6.152,-13.739 13.738,-13.739" style="fill:#6c97d4;fill-opacity:1;fill-rule:nonzero;stroke:none" id="path616"/>
      <path d="m 473.566,212.234 c 7.594,0 13.743,6.141 13.743,13.739 0,7.578 -6.149,13.722 -13.743,13.722 -7.586,0 -13.738,-6.144 -13.738,-13.722 0,-7.598 6.152,-13.739 13.738,-13.739" style="fill:#6c97d4;fill-opacity:1;fill-rule:nonzero;stroke:none" id="path618"/>
      <path d="m 508.941,212.234 c 7.59,0 13.739,6.141 13.739,13.739 0,7.578 -6.149,13.722 -13.739,13.722 -7.589,0 -13.742,-6.144 -13.742,-13.722 0,-7.598 6.153,-13.739 13.742,-13.739" style="fill:#6c97d4;fill-opacity:1;fill-rule:nonzero;stroke:none" id="path620"/>
      <path d="m 544.313,212.234 c 7.589,0 13.738,6.141 13.738,13.739 0,7.578 -6.149,13.722 -13.738,13.722 -7.59,0 -13.743,-6.144 -13.743,-13.722 0,-7.598 6.153,-13.739 13.743,-13.739" style="fill:#6c97d4;fill-opacity:1;fill-rule:nonzero;stroke:none" id="path622"/>
      <path d="m 119.852,176.852 c 7.593,0 13.742,6.152 13.742,13.742 0,7.586 -6.149,13.73 -13.742,13.73 -7.586,0 -13.735,-6.144 -13.735,-13.73 0,-7.59 6.149,-13.742 13.735,-13.742" style="fill:#6c97d4;fill-opacity:1;fill-rule:nonzero;stroke:none" id="path624"/>
      <path d="m 155.223,176.852 c 7.593,0 13.742,6.152 13.742,13.742 0,7.586 -6.149,13.73 -13.742,13.73 -7.586,0 -13.735,-6.144 -13.735,-13.73 0,-7.59 6.149,-13.742 13.735,-13.742" style="fill:#6c97d4;fill-opacity:1;fill-rule:nonzero;stroke:none" id="path626"/>
      <path d="m 190.602,176.852 c 7.586,0 13.738,6.152 13.738,13.742 0,7.586 -6.152,13.73 -13.738,13.73 -7.594,0 -13.743,-6.144 -13.743,-13.73 0,-7.59 6.149,-13.742 13.743,-13.742" style="fill:#6c97d4;fill-opacity:1;fill-rule:nonzero;stroke:none" id="path628"/>
      <path d="m 225.973,176.852 c 7.586,0 13.738,6.152 13.738,13.742 0,7.586 -6.152,13.73 -13.738,13.73 -7.594,0 -13.743,-6.144 -13.743,-13.73 0,-7.59 6.149,-13.742 13.743,-13.742" style="fill:#6c97d4;fill-opacity:1;fill-rule:nonzero;stroke:none" id="path630"/>
      <path d="m 261.344,176.852 c 7.586,0 13.738,6.152 13.738,13.742 0,7.586 -6.152,13.73 -13.738,13.73 -7.594,0 -13.742,-6.144 -13.742,-13.73 0,-7.59 6.148,-13.742 13.742,-13.742" style="fill:#6c97d4;fill-opacity:1;fill-rule:nonzero;stroke:none" id="path632"/>
      <path d="m 296.715,176.852 c 7.586,0 13.738,6.152 13.738,13.742 0,7.586 -6.152,13.73 -13.738,13.73 -7.594,0 -13.742,-6.144 -13.742,-13.73 0,-7.59 6.148,-13.742 13.742,-13.742" style="fill:#6c97d4;fill-opacity:1;fill-rule:nonzero;stroke:none" id="path634"/>
      <path d="m 332.086,176.852 c 7.586,0 13.738,6.152 13.738,13.742 0,7.586 -6.152,13.73 -13.738,13.73 -7.594,0 -13.742,-6.144 -13.742,-13.73 0,-7.59 6.148,-13.742 13.742,-13.742" style="fill:#6c97d4;fill-opacity:1;fill-rule:nonzero;stroke:none" id="path636"/>
      <path d="m 367.453,176.852 c 7.59,0 13.742,6.152 13.742,13.742 0,7.586 -6.152,13.73 -13.742,13.73 -7.586,0 -13.738,-6.144 -13.738,-13.73 0,-7.59 6.152,-13.742 13.738,-13.742" style="fill:#6c97d4;fill-opacity:1;fill-rule:nonzero;stroke:none" id="path638"/>
      <path d="m 402.824,176.852 c 7.59,0 13.742,6.152 13.742,13.742 0,7.586 -6.152,13.73 -13.742,13.73 -7.586,0 -13.738,-6.144 -13.738,-13.73 0,-7.59 6.152,-13.742 13.738,-13.742" style="fill:#6c97d4;fill-opacity:1;fill-rule:nonzero;stroke:none" id="path640"/>
      <path d="m 438.195,176.852 c 7.594,0 13.743,6.152 13.743,13.742 0,7.586 -6.149,13.73 -13.743,13.73 -7.586,0 -13.738,-6.144 -13.738,-13.73 0,-7.59 6.152,-13.742 13.738,-13.742" style="fill:#6c97d4;fill-opacity:1;fill-rule:nonzero;stroke:none" id="path642"/>
      <path d="m 473.566,176.852 c 7.594,0 13.743,6.152 13.743,13.742 0,7.586 -6.149,13.73 -13.743,13.73 -7.586,0 -13.738,-6.144 -13.738,-13.73 0,-7.59 6.152,-13.742 13.738,-13.742" style="fill:#6c97d4;fill-opacity:1;fill-rule:nonzero;stroke:none" id="path644"/>
      <path d="m 508.941,176.852 c 7.59,0 13.739,6.152 13.739,13.742 0,7.586 -6.149,13.73 -13.739,13.73 -7.589,0 -13.742,-6.144 -13.742,-13.73 0,-7.59 6.153,-13.742 13.742,-13.742" style="fill:#6c97d4;fill-opacity:1;fill-rule:nonzero;stroke:none" id="path646"/>
      <path d="m 544.313,176.852 c 7.589,0 13.738,6.152 13.738,13.742 0,7.586 -6.149,13.73 -13.738,13.73 -7.59,0 -13.743,-6.144 -13.743,-13.73 0,-7.59 6.153,-13.742 13.743,-13.742" style="fill:#6c97d4;fill-opacity:1;fill-rule:nonzero;stroke:none" id="path648"/>
      <path d="m 579.684,176.852 c 7.589,0 13.738,6.152 13.738,13.742 0,7.586 -6.149,13.73 -13.738,13.73 -7.59,0 -13.743,-6.144 -13.743,-13.73 0,-7.59 6.153,-13.742 13.743,-13.742" style="fill:#6c97d4;fill-opacity:1;fill-rule:nonzero;stroke:none" id="path650"/>
      <path d="m 84.4805,141.48 c 7.5937,0 13.7422,6.153 13.7422,13.743 0,7.586 -6.1485,13.73 -13.7422,13.73 -7.586,0 -13.7383,-6.144 -13.7383,-13.73 0,-7.59 6.1523,-13.743 13.7383,-13.743" style="fill:#6c97d4;fill-opacity:1;fill-rule:nonzero;stroke:none" id="path652"/>
      <path d="m 119.852,141.48 c 7.593,0 13.742,6.153 13.742,13.743 0,7.586 -6.149,13.73 -13.742,13.73 -7.586,0 -13.735,-6.144 -13.735,-13.73 0,-7.59 6.149,-13.743 13.735,-13.743" style="fill:#6c97d4;fill-opacity:1;fill-rule:nonzero;stroke:none" id="path654"/>
      <path d="m 155.223,141.48 c 7.593,0 13.742,6.153 13.742,13.743 0,7.586 -6.149,13.73 -13.742,13.73 -7.586,0 -13.735,-6.144 -13.735,-13.73 0,-7.59 6.149,-13.743 13.735,-13.743" style="fill:#6c97d4;fill-opacity:1;fill-rule:nonzero;stroke:none" id="path656"/>
      <path d="m 190.602,141.48 c 7.586,0 13.738,6.153 13.738,13.743 0,7.586 -6.152,13.73 -13.738,13.73 -7.594,0 -13.743,-6.144 -13.743,-13.73 0,-7.59 6.149,-13.743 13.743,-13.743" style="fill:#6c97d4;fill-opacity:1;fill-rule:nonzero;stroke:none" id="path658"/>
      <path d="m 225.973,141.48 c 7.586,0 13.738,6.153 13.738,13.743 0,7.586 -6.152,13.73 -13.738,13.73 -7.594,0 -13.743,-6.144 -13.743,-13.73 0,-7.59 6.149,-13.743 13.743,-13.743" style="fill:#6c97d4;fill-opacity:1;fill-rule:nonzero;stroke:none" id="path660"/>
      <path d="m 261.344,141.48 c 7.586,0 13.738,6.153 13.738,13.743 0,7.586 -6.152,13.73 -13.738,13.73 -7.594,0 -13.742,-6.144 -13.742,-13.73 0,-7.59 6.148,-13.743 13.742,-13.743" style="fill:#6c97d4;fill-opacity:1;fill-rule:nonzero;stroke:none" id="path662"/>
      <path d="m 296.715,141.48 c 7.586,0 13.738,6.153 13.738,13.743 0,7.586 -6.152,13.73 -13.738,13.73 -7.594,0 -13.742,-6.144 -13.742,-13.73 0,-7.59 6.148,-13.743 13.742,-13.743" style="fill:#6c97d4;fill-opacity:1;fill-rule:nonzero;stroke:none" id="path664"/>
      <path d="m 332.086,141.48 c 7.586,0 13.738,6.153 13.738,13.743 0,7.586 -6.152,13.73 -13.738,13.73 -7.594,0 -13.742,-6.144 -13.742,-13.73 0,-7.59 6.148,-13.743 13.742,-13.743" style="fill:#6c97d4;fill-opacity:1;fill-rule:nonzero;stroke:none" id="path666"/>
      <path d="m 367.453,141.48 c 7.59,0 13.742,6.153 13.742,13.743 0,7.586 -6.152,13.73 -13.742,13.73 -7.586,0 -13.738,-6.144 -13.738,-13.73 0,-7.59 6.152,-13.743 13.738,-13.743" style="fill:#6c97d4;fill-opacity:1;fill-rule:nonzero;stroke:none" id="path668"/>
      <path d="m 402.824,141.48 c 7.59,0 13.742,6.153 13.742,13.743 0,7.586 -6.152,13.73 -13.742,13.73 -7.586,0 -13.738,-6.144 -13.738,-13.73 0,-7.59 6.152,-13.743 13.738,-13.743" style="fill:#6c97d4;fill-opacity:1;fill-rule:nonzero;stroke:none" id="path670"/>
      <path d="m 438.195,141.48 c 7.594,0 13.743,6.153 13.743,13.743 0,7.586 -6.149,13.73 -13.743,13.73 -7.586,0 -13.738,-6.144 -13.738,-13.73 0,-7.59 6.152,-13.743 13.738,-13.743" style="fill:#6c97d4;fill-opacity:1;fill-rule:nonzero;stroke:none" id="path672"/>
      <path d="m 473.566,141.48 c 7.594,0 13.743,6.153 13.743,13.743 0,7.586 -6.149,13.73 -13.743,13.73 -7.586,0 -13.738,-6.144 -13.738,-13.73 0,-7.59 6.152,-13.743 13.738,-13.743" style="fill:#6c97d4;fill-opacity:1;fill-rule:nonzero;stroke:none" id="path674"/>
      <path d="m 508.941,141.48 c 7.59,0 13.739,6.153 13.739,13.743 0,7.586 -6.149,13.73 -13.739,13.73 -7.589,0 -13.742,-6.144 -13.742,-13.73 0,-7.59 6.153,-13.743 13.742,-13.743" style="fill:#6c97d4;fill-opacity:1;fill-rule:nonzero;stroke:none" id="path676"/>
      <path d="m 544.313,141.48 c 7.589,0 13.738,6.153 13.738,13.743 0,7.586 -6.149,13.73 -13.738,13.73 -7.59,0 -13.743,-6.144 -13.743,-13.73 0,-7.59 6.153,-13.743 13.743,-13.743" style="fill:#6c97d4;fill-opacity:1;fill-rule:nonzero;stroke:none" id="path678"/>
      <path d="m 579.684,141.48 c 7.589,0 13.738,6.153 13.738,13.743 0,7.586 -6.149,13.73 -13.738,13.73 -7.59,0 -13.743,-6.144 -13.743,-13.73 0,-7.59 6.153,-13.743 13.743,-13.743" style="fill:#6c97d4;fill-opacity:1;fill-rule:nonzero;stroke:none" id="path680"/>
      <path d="m 84.4805,106.109 c 7.5937,0 13.7422,6.153 13.7422,13.743 0,7.586 -6.1485,13.73 -13.7422,13.73 -7.586,0 -13.7383,-6.144 -13.7383,-13.73 0,-7.59 6.1523,-13.743 13.7383,-13.743" style="fill:#6c97d4;fill-opacity:1;fill-rule:nonzero;stroke:none" id="path682"/>
      <path d="m 119.852,106.109 c 7.593,0 13.742,6.153 13.742,13.743 0,7.586 -6.149,13.73 -13.742,13.73 -7.586,0 -13.735,-6.144 -13.735,-13.73 0,-7.59 6.149,-13.743 13.735,-13.743" style="fill:#182455;fill-opacity:1;fill-rule:nonzero;stroke:none" id="path684"/>
      <path d="m 155.223,106.109 c 7.593,0 13.742,6.153 13.742,13.743 0,7.586 -6.149,13.73 -13.742,13.73 -7.586,0 -13.735,-6.144 -13.735,-13.73 0,-7.59 6.149,-13.743 13.735,-13.743" style="fill:#6c97d4;fill-opacity:1;fill-rule:nonzero;stroke:none" id="path686"/>
      <path d="m 190.602,106.109 c 7.586,0 13.738,6.153 13.738,13.743 0,7.586 -6.152,13.73 -13.738,13.73 -7.594,0 -13.743,-6.144 -13.743,-13.73 0,-7.59 6.149,-13.743 13.743,-13.743" style="fill:#6c97d4;fill-opacity:1;fill-rule:nonzero;stroke:none" id="path688"/>
      <path d="m 225.973,106.109 c 7.586,0 13.738,6.153 13.738,13.743 0,7.586 -6.152,13.73 -13.738,13.73 -7.594,0 -13.743,-6.144 -13.743,-13.73 0,-7.59 6.149,-13.743 13.743,-13.743" style="fill:#6c97d4;fill-opacity:1;fill-rule:nonzero;stroke:none" id="path690"/>
      <path d="m 261.344,106.109 c 7.586,0 13.738,6.153 13.738,13.743 0,7.586 -6.152,13.73 -13.738,13.73 -7.594,0 -13.742,-6.144 -13.742,-13.73 0,-7.59 6.148,-13.743 13.742,-13.743" style="fill:#6c97d4;fill-opacity:1;fill-rule:nonzero;stroke:none" id="path692"/>
      <path d="m 296.715,106.109 c 7.586,0 13.738,6.153 13.738,13.743 0,7.586 -6.152,13.73 -13.738,13.73 -7.594,0 -13.742,-6.144 -13.742,-13.73 0,-7.59 6.148,-13.743 13.742,-13.743" style="fill:#6c97d4;fill-opacity:1;fill-rule:nonzero;stroke:none" id="path694"/>
      <path d="m 332.086,106.109 c 7.586,0 13.738,6.153 13.738,13.743 0,7.586 -6.152,13.73 -13.738,13.73 -7.594,0 -13.742,-6.144 -13.742,-13.73 0,-7.59 6.148,-13.743 13.742,-13.743" style="fill:#6c97d4;fill-opacity:1;fill-rule:nonzero;stroke:none" id="path696"/>
      <path d="m 367.453,106.109 c 7.59,0 13.742,6.153 13.742,13.743 0,7.586 -6.152,13.73 -13.742,13.73 -7.586,0 -13.738,-6.144 -13.738,-13.73 0,-7.59 6.152,-13.743 13.738,-13.743" style="fill:#6c97d4;fill-opacity:1;fill-rule:nonzero;stroke:none" id="path698"/>
      <path d="m 402.824,106.109 c 7.59,0 13.742,6.153 13.742,13.743 0,7.586 -6.152,13.73 -13.742,13.73 -7.586,0 -13.738,-6.144 -13.738,-13.73 0,-7.59 6.152,-13.743 13.738,-13.743" style="fill:#6c97d4;fill-opacity:1;fill-rule:nonzero;stroke:none" id="path700"/>
      <path d="m 438.195,106.109 c 7.594,0 13.743,6.153 13.743,13.743 0,7.586 -6.149,13.73 -13.743,13.73 -7.586,0 -13.738,-6.144 -13.738,-13.73 0,-7.59 6.152,-13.743 13.738,-13.743" style="fill:#6c97d4;fill-opacity:1;fill-rule:nonzero;stroke:none" id="path702"/>
      <path d="m 473.566,106.109 c 7.594,0 13.743,6.153 13.743,13.743 0,7.586 -6.149,13.73 -13.743,13.73 -7.586,0 -13.738,-6.144 -13.738,-13.73 0,-7.59 6.152,-13.743 13.738,-13.743" style="fill:#6c97d4;fill-opacity:1;fill-rule:nonzero;stroke:none" id="path704"/>
      <path d="m 508.941,106.109 c 7.59,0 13.739,6.153 13.739,13.743 0,7.586 -6.149,13.73 -13.739,13.73 -7.589,0 -13.742,-6.144 -13.742,-13.73 0,-7.59 6.153,-13.743 13.742,-13.743" style="fill:#6c97d4;fill-opacity:1;fill-rule:nonzero;stroke:none" id="path706"/>
      <path d="m 544.313,106.109 c 7.589,0 13.738,6.153 13.738,13.743 0,7.586 -6.149,13.73 -13.738,13.73 -7.59,0 -13.743,-6.144 -13.743,-13.73 0,-7.59 6.153,-13.743 13.743,-13.743" style="fill:#6c97d4;fill-opacity:1;fill-rule:nonzero;stroke:none" id="path708"/>
      <path d="m 84.4805,70.7383 c 7.5937,0 13.7422,6.1523 13.7422,13.7422 0,7.5859 -6.1485,13.7304 -13.7422,13.7304 -7.586,0 -13.7383,-6.1445 -13.7383,-13.7304 0,-7.5899 6.1523,-13.7422 13.7383,-13.7422" style="fill:#6c97d4;fill-opacity:1;fill-rule:nonzero;stroke:none" id="path710"/>
      <path d="m 119.852,70.7383 c 7.593,0 13.742,6.1523 13.742,13.7422 0,7.5859 -6.149,13.7304 -13.742,13.7304 -7.586,0 -13.735,-6.1445 -13.735,-13.7304 0,-7.5899 6.149,-13.7422 13.735,-13.7422" style="fill:#6c97d4;fill-opacity:1;fill-rule:nonzero;stroke:none" id="path712"/>
      <path d="m 155.223,70.7383 c 7.593,0 13.742,6.1523 13.742,13.7422 0,7.5859 -6.149,13.7304 -13.742,13.7304 -7.586,0 -13.735,-6.1445 -13.735,-13.7304 0,-7.5899 6.149,-13.7422 13.735,-13.7422" style="fill:#6c97d4;fill-opacity:1;fill-rule:nonzero;stroke:none" id="path714"/>
      <path d="m 190.602,70.7383 c 7.586,0 13.738,6.1523 13.738,13.7422 0,7.5859 -6.152,13.7304 -13.738,13.7304 -7.594,0 -13.743,-6.1445 -13.743,-13.7304 0,-7.5899 6.149,-13.7422 13.743,-13.7422" style="fill:#6c97d4;fill-opacity:1;fill-rule:nonzero;stroke:none" id="path716"/>
      <path d="m 225.973,70.7383 c 7.586,0 13.738,6.1523 13.738,13.7422 0,7.5859 -6.152,13.7304 -13.738,13.7304 -7.594,0 -13.743,-6.1445 -13.743,-13.7304 0,-7.5899 6.149,-13.7422 13.743,-13.7422" style="fill:#6c97d4;fill-opacity:1;fill-rule:nonzero;stroke:none" id="path718"/>
      <path d="m 261.344,70.7383 c 7.586,0 13.738,6.1523 13.738,13.7422 0,7.5859 -6.152,13.7304 -13.738,13.7304 -7.594,0 -13.742,-6.1445 -13.742,-13.7304 0,-7.5899 6.148,-13.7422 13.742,-13.7422" style="fill:#6c97d4;fill-opacity:1;fill-rule:nonzero;stroke:none" id="path720"/>
      <path d="m 296.715,70.7383 c 7.586,0 13.738,6.1523 13.738,13.7422 0,7.5859 -6.152,13.7304 -13.738,13.7304 -7.594,0 -13.742,-6.1445 -13.742,-13.7304 0,-7.5899 6.148,-13.7422 13.742,-13.7422" style="fill:#6c97d4;fill-opacity:1;fill-rule:nonzero;stroke:none" id="path722"/>
      <path d="m 332.086,70.7383 c 7.586,0 13.738,6.1523 13.738,13.7422 0,7.5859 -6.152,13.7304 -13.738,13.7304 -7.594,0 -13.742,-6.1445 -13.742,-13.7304 0,-7.5899 6.148,-13.7422 13.742,-13.7422" style="fill:#6c97d4;fill-opacity:1;fill-rule:nonzero;stroke:none" id="path724"/>
      <path d="m 367.453,70.7383 c 7.59,0 13.742,6.1523 13.742,13.7422 0,7.5859 -6.152,13.7304 -13.742,13.7304 -7.586,0 -13.738,-6.1445 -13.738,-13.7304 0,-7.5899 6.152,-13.7422 13.738,-13.7422" style="fill:#6c97d4;fill-opacity:1;fill-rule:nonzero;stroke:none" id="path726"/>
      <path d="m 402.824,70.7383 c 7.59,0 13.742,6.1523 13.742,13.7422 0,7.5859 -6.152,13.7304 -13.742,13.7304 -7.586,0 -13.738,-6.1445 -13.738,-13.7304 0,-7.5899 6.152,-13.7422 13.738,-13.7422" style="fill:#6c97d4;fill-opacity:1;fill-rule:nonzero;stroke:none" id="path728"/>
      <path d="m 438.195,70.7383 c 7.594,0 13.743,6.1523 13.743,13.7422 0,7.5859 -6.149,13.7304 -13.743,13.7304 -7.586,0 -13.738,-6.1445 -13.738,-13.7304 0,-7.5899 6.152,-13.7422 13.738,-13.7422" style="fill:#6c97d4;fill-opacity:1;fill-rule:nonzero;stroke:none" id="path730"/>
      <path d="m 473.566,70.7383 c 7.594,0 13.743,6.1523 13.743,13.7422 0,7.5859 -6.149,13.7304 -13.743,13.7304 -7.586,0 -13.738,-6.1445 -13.738,-13.7304 0,-7.5899 6.152,-13.7422 13.738,-13.7422" style="fill:#6c97d4;fill-opacity:1;fill-rule:nonzero;stroke:none" id="path732"/>
      <path d="m 508.941,70.7383 c 7.59,0 13.739,6.1523 13.739,13.7422 0,7.5859 -6.149,13.7304 -13.739,13.7304 -7.589,0 -13.742,-6.1445 -13.742,-13.7304 0,-7.5899 6.153,-13.7422 13.742,-13.7422" style="fill:#6c97d4;fill-opacity:1;fill-rule:nonzero;stroke:none" id="path734"/>
      <path d="m 225.973,35.3672 c 7.586,0 13.738,6.1523 13.738,13.7422 0,7.5781 -6.152,13.7304 -13.738,13.7304 -7.594,0 -13.743,-6.1523 -13.743,-13.7304 0,-7.5899 6.149,-13.7422 13.743,-13.7422" style="fill:#6c97d4;fill-opacity:1;fill-rule:nonzero;stroke:none" id="path736"/>
      <path d="m 261.344,35.3672 c 7.586,0 13.738,6.1523 13.738,13.7422 0,7.5781 -6.152,13.7304 -13.738,13.7304 -7.594,0 -13.742,-6.1523 -13.742,-13.7304 0,-7.5899 6.148,-13.7422 13.742,-13.7422" style="fill:#6c97d4;fill-opacity:1;fill-rule:nonzero;stroke:none" id="path738"/>
      <path d="m 296.715,35.3672 c 7.586,0 13.738,6.1523 13.738,13.7422 0,7.5781 -6.152,13.7304 -13.738,13.7304 -7.594,0 -13.742,-6.1523 -13.742,-13.7304 0,-7.5899 6.148,-13.7422 13.742,-13.7422" style="fill:#6c97d4;fill-opacity:1;fill-rule:nonzero;stroke:none" id="path740"/>
      <path d="m 332.086,35.3672 c 7.586,0 13.738,6.1523 13.738,13.7422 0,7.5781 -6.152,13.7304 -13.738,13.7304 -7.594,0 -13.742,-6.1523 -13.742,-13.7304 0,-7.5899 6.148,-13.7422 13.742,-13.7422" style="fill:#6c97d4;fill-opacity:1;fill-rule:nonzero;stroke:none" id="path742"/>
      <path d="m 367.453,35.3672 c 7.59,0 13.742,6.1523 13.742,13.7422 0,7.5781 -6.152,13.7304 -13.742,13.7304 -7.586,0 -13.738,-6.1523 -13.738,-13.7304 0,-7.5899 6.152,-13.7422 13.738,-13.7422" style="fill:#6c97d4;fill-opacity:1;fill-rule:nonzero;stroke:none" id="path744"/>
      <path d="m 402.824,35.3672 c 7.59,0 13.742,6.1523 13.742,13.7422 0,7.5781 -6.152,13.7304 -13.742,13.7304 -7.586,0 -13.738,-6.1523 -13.738,-13.7304 0,-7.5899 6.152,-13.7422 13.738,-13.7422" style="fill:#6c97d4;fill-opacity:1;fill-rule:nonzero;stroke:none" id="path746"/>
      <path d="m 438.195,35.3672 c 7.594,0 13.743,6.1523 13.743,13.7422 0,7.5781 -6.149,13.7304 -13.743,13.7304 -7.586,0 -13.738,-6.1523 -13.738,-13.7304 0,-7.5899 6.152,-13.7422 13.738,-13.7422" style="fill:#6c97d4;fill-opacity:1;fill-rule:nonzero;stroke:none" id="path748"/>
      <path d="m 473.566,35.3672 c 7.594,0 13.743,6.1523 13.743,13.7422 0,7.5781 -6.149,13.7304 -13.743,13.7304 -7.586,0 -13.738,-6.1523 -13.738,-13.7304 0,-7.5899 6.152,-13.7422 13.738,-13.7422" style="fill:#6c97d4;fill-opacity:1;fill-rule:nonzero;stroke:none" id="path750"/>
      <path d="m 508.941,35.3672 c 7.59,0 13.739,6.1523 13.739,13.7422 0,7.5781 -6.149,13.7304 -13.739,13.7304 -7.589,0 -13.742,-6.1523 -13.742,-13.7304 0,-7.5899 6.153,-13.7422 13.742,-13.7422" style="fill:#6c97d4;fill-opacity:1;fill-rule:nonzero;stroke:none" id="path752"/>
      <path d="m 261.344,-0.00390625 c 7.586,0 13.738,6.15234625 13.738,13.74220625 0,7.5781 -6.152,13.7305 -13.738,13.7305 -7.594,0 -13.742,-6.1524 -13.742,-13.7305 0,-7.58986 6.148,-13.74220625 13.742,-13.74220625" style="fill:#6c97d4;fill-opacity:1;fill-rule:nonzero;stroke:none" id="path754"/>
    </g>
  </g>
</svg>